
<svg xmlns="http://www.w3.org/2000/svg" version="1.1" xmlns:xlink="http://www.w3.org/1999/xlink" preserveAspectRatio="none" x="0px" y="0px" width="640px" height="480px" viewBox="0 0 640 480">
<defs>
<g id="Layer0_0_FILL">
<path fill="#3b82f6" stroke="none" d="
M 355.3 181.1
Q 353.75 182.2 354 185 354.15 186.2 358.95 188.65 361.5 189.9 365.25 191.5
L 372.1 194.95
Q 368.3 189 365.2 185.25 362.95 182.55 361.6 181.6 360.4 180.8 358.45 180.5 356.55 180.2 355.3 181.1
M 381.6 305.3
Q 380.3 314.5 380 318.3 379.75 321.95 379 325.85 378.6 327.85 378.1 330.45 376.75 339.35 376.25 341.8
L 375.8 345.3
Q 375.65 349.6 377.05 353.6 378.55 357.85 381.85 355.7 384.65 353.75 385.7 350.4 386.8 346.85 387.15 344.45 387.8 340.4 387.35 335.25 387.05 331.45 385.6 321.45 384.3 312.05 384.1 309.1 383.9 305.5 383.35 300.8
L 382.9 296.85 381.6 305.3
M 348.35 316.05
Q 347.35 317.45 345.95 319.75 343.2 324.4 341.75 328.6 339.95 333.7 339.15 341.45 338.35 349.25 339.15 353.9 339.9 358.2 343.1 359.35 345.9 360.4 348 358.65 349.6 357.3 349.4 352.6 349.35 351.45 348 338.15 347.15 329.9 347.65 322.15
L 348.35 316.05
M 337.7 303.65
Q 336.9 303.1 335.35 304.8 332.35 310.45 328.2 320.6 322.45 334.65 320.15 344.75 316.3 361.7 326 368 328.85 369.85 331.75 368.05 334.8 366.15 334.65 361.7
L 333.95 338.45
Q 333.7 330.4 335.3 319.75 336.45 312.1 337.75 307.15 338.55 304.2 337.7 303.65
M 352.1 263.7
Q 352.75 262.5 353.25 261.7 351.8 261.95 349.95 262.65 346.25 264.05 344.2 266.25 336.8 274.2 340.85 277.55 343.25 279.55 345.15 278.85 346.65 278.3 348.15 275.85 349.1 274.35 349.2 272.3 349.35 269.85 349.95 268.3 350.8 266.15 352.1 263.7
M 336.2 264.65
Q 333.1 266.15 329.55 268.45 322.45 273 320.3 277.05 317.6 282.15 316.65 285.6 315.6 289.45 316.4 292.3 317.15 295.05 320.1 294.8 322.6 294.55 325.05 292.5 326.7 291.15 327.3 287.05 328.25 280.5 328.7 279 329.75 275.35 333.1 269.65 334.75 266.8 336.2 264.65
M 334.7 247.3
Q 332.9 247.5 330.15 248.15 324.65 249.5 319.85 251.95 313.4 255.2 311.4 256.75 308.35 259.1 303.55 265.2 298.35 271.85 296.05 277.8 293.75 283.8 295.85 285.55 298 287.3 300.2 286.8 302.4 286.3 304.1 283.6 305.9 280.7 314.6 266.05 319.4 258 327.5 251.85 331.6 248.75 334.7 247.3
M 287.1 245.2
Q 289.2 236.6 289.9 233.9 291 229.85 293.55 225.2 296.1 220.55 301.2 214.9 303.75 212.05 305.75 210.15 301.35 211.15 296.15 213.15 285.75 217.25 281.8 222.55 276.85 229.2 274.5 234.4 272 240.05 272.15 245 272.3 249.85 273.7 252.45 274.9 254.75 277.3 255.7 283.55 258.25 287.1 245.2 Z"/>
</g>

<path id="Layer0_0_1_STROKES" stroke="#3b82f6" stroke-width="1" stroke-linejoin="round" stroke-linecap="round" fill="none" d="
M 354 185
Q 354.15 186.2 358.95 188.65 361.5 189.9 365.25 191.5
L 372.1 194.95
Q 368.3 189 365.2 185.25 362.95 182.55 361.6 181.6 360.4 180.8 358.45 180.5 356.55 180.2 355.3 181.1 353.75 182.2 354 185 Z
M 353.25 261.7
Q 351.8 261.95 349.95 262.65 346.25 264.05 344.2 266.25 336.8 274.2 340.85 277.55 343.25 279.55 345.15 278.85 346.65 278.3 348.15 275.85 349.1 274.35 349.2 272.3 349.35 269.85 349.95 268.3 350.8 266.15 352.1 263.7 352.75 262.5 353.25 261.7 Z
M 336.2 264.65
Q 333.1 266.15 329.55 268.45 322.45 273 320.3 277.05 317.6 282.15 316.65 285.6 315.6 289.45 316.4 292.3 317.15 295.05 320.1 294.8 322.6 294.55 325.05 292.5 326.7 291.15 327.3 287.05 328.25 280.5 328.7 279 329.75 275.35 333.1 269.65 334.75 266.8 336.2 264.65 Z
M 334.7 247.3
Q 331.6 248.75 327.5 251.85 319.4 258 314.6 266.05 305.9 280.7 304.1 283.6 302.4 286.3 300.2 286.8 298 287.3 295.85 285.55 293.75 283.8 296.05 277.8 298.35 271.85 303.55 265.2 308.35 259.1 311.4 256.75 313.4 255.2 319.85 251.95 324.65 249.5 330.15 248.15 332.9 247.5 334.7 247.3 Z
M 376.25 341.8
Q 376.75 339.35 378.1 330.45 378.6 327.85 379 325.85 379.75 321.95 380 318.3 380.3 314.5 381.6 305.3
L 382.9 296.85 383.35 300.8
Q 383.9 305.5 384.1 309.1 384.3 312.05 385.6 321.45 387.05 331.45 387.35 335.25 387.8 340.4 387.15 344.45 386.8 346.85 385.7 350.4 384.65 353.75 381.85 355.7 378.55 357.85 377.05 353.6 375.65 349.6 375.8 345.3
L 376.25 341.8 Z
M 348.35 316.05
L 347.65 322.15
Q 347.15 329.9 348 338.15 349.35 351.45 349.4 352.6 349.6 357.3 348 358.65 345.9 360.4 343.1 359.35 339.9 358.2 339.15 353.9 338.35 349.25 339.15 341.45 339.95 333.7 341.75 328.6 343.2 324.4 345.95 319.75 347.35 317.45 348.35 316.05 Z
M 335.35 304.8
Q 336.9 303.1 337.7 303.65 338.55 304.2 337.75 307.15 336.45 312.1 335.3 319.75 333.7 330.4 333.95 338.45
L 334.65 361.7
Q 334.8 366.15 331.75 368.05 328.85 369.85 326 368 316.3 361.7 320.15 344.75 322.45 334.65 328.2 320.6 332.35 310.45 335.35 304.8 Z
M 305.75 210.15
Q 301.35 211.15 296.15 213.15 285.75 217.25 281.8 222.55 276.85 229.2 274.5 234.4 272 240.05 272.15 245 272.3 249.85 273.7 252.45 274.9 254.75 277.3 255.7 283.55 258.25 287.1 245.2 289.2 236.6 289.9 233.9 291 229.85 293.55 225.2 296.1 220.55 301.2 214.9 303.75 212.05 305.75 210.15 Z"/>
</defs>

<g transform="matrix( 1, 0, 0, 1, 0,0) ">
<use xlink:href="#Layer0_0_FILL"/>

<use xlink:href="#Layer0_0_1_STROKES"/>
</g>
</svg>
