
<svg xmlns="http://www.w3.org/2000/svg" version="1.1" xmlns:xlink="http://www.w3.org/1999/xlink" preserveAspectRatio="none" x="0px" y="0px" width="640px" height="480px" viewBox="0 0 640 480">
<defs>
<g id="Layer0_0_FILL">
<path fill="#3b82f6" stroke="none" d="
M 396.05 244.95
Q 396.9 240.15 396.8 233.9 396.7 227.2 386.35 219.7 378.2 213.75 370.85 211.45 364.55 209.45 358.3 209.4 349.2 209.25 333.7 212.35 326.35 213.8 323.35 216.25 321.55 217.75 322 219.65 322.5 221.55 324.7 222.4 327.55 223.5 338.25 223.6 341.7 223.65 343.8 224 345.95 224.35 345.95 224.9 345.95 225.25 343.8 225.8 341.45 226.4 340.9 227 339.35 228.7 342.1 229.8 343.7 230.4 346.1 232.15 339.9 235.65 337.15 237.9 333.7 240.65 331.85 242.2 328.5 245 328.1 246.1 327.6 247.5 328.6 248.5 329.65 249.55 331.6 248.8 333.15 248.2 336.7 246.65 340.15 245.15 343.05 244.15 346.05 243.1 349.45 242.8 351.1 242.6 352.2 242.65 350.3 244.3 348.35 246.3 344.4 250.3 344.05 251.9 343.65 253.8 344.9 254.45 346.1 255.05 349.05 254.6 352.9 254.05 360.15 251.65
L 354.6 263.55
Q 348.8 276.4 347.4 280.85 345.9 285.6 345.1 289.95 344.6 292.6 344.1 296.95 343.75 300.05 345.05 301.75 346.3 303.4 348.25 302.95 349.95 302.55 351.35 300.9 352.3 299.8 354.45 296.25 362.2 283.45 367.8 277.85 373.35 272.3 378.65 267.2
L 377.3 276.4
Q 376.2 286.2 377.4 289.2 378.7 292.5 381.1 292.35 383.2 292.2 384.25 290.1 385.05 288.55 385.95 284.9 386.3 283.35 388 275.65 388.9 271.5 391.4 263.25 393.85 255 394.4 252.5 395.6 247.7 396.05 244.95
M 381.25 244.9
Q 382.85 244.6 384 245.45 385.05 246.2 385.25 246.95 385.4 247.6 385 248.55 384.65 249.45 382.8 250.85 380.7 252.35 380 252.95
L 373.5 259.4 374.3 258.1
Q 375.3 256.55 376.15 255.5 377 254.45 377.6 252.3
L 373.4 255.1
Q 371.65 256.25 370.15 257.65
L 368.95 258.85 372.4 253.5
Q 376.2 247.9 377.85 246.6 379.6 245.2 381.25 244.9
M 377.35 226.6
Q 378 227 379.45 227.6 380.8 228.2 381.15 228.45 382.55 229.45 382.75 229.6 383.45 230.15 383.7 230.75 384.3 232 383 232.35 382.65 232.45 382.05 232.05 381.3 231.55 380.8 231.45
L 377.2 230.9 377.3 230.7
Q 377.45 230.45 377.8 230.35
L 379.2 229.85
Q 377.9 229.4 376.1 227.65 375 226.6 374.4 225.55
L 374.1 224.75 377.35 226.6 Z"/>
</g>

<path id="Layer0_0_1_STROKES" stroke="#3b82f6" stroke-width="1" stroke-linejoin="round" stroke-linecap="round" fill="none" d="
M 381.15 228.45
Q 382.55 229.45 382.75 229.6 383.45 230.15 383.7 230.75 384.3 232 383 232.35 382.65 232.45 382.05 232.05 381.3 231.55 380.8 231.45
L 377.2 230.9 377.3 230.7
Q 377.45 230.45 377.8 230.35
L 379.2 229.85
Q 377.9 229.4 376.1 227.65 375 226.6 374.4 225.55
L 374.1 224.75 377.35 226.6
Q 378 227 379.45 227.6 380.8 228.2 381.15 228.45 Z
M 385 248.55
Q 385.4 247.6 385.25 246.95 385.05 246.2 384 245.45 382.85 244.6 381.25 244.9 379.6 245.2 377.85 246.6 376.2 247.9 372.4 253.5
L 368.95 258.85 370.15 257.65
Q 371.65 256.25 373.4 255.1
L 377.6 252.3
Q 377 254.45 376.15 255.5 375.3 256.55 374.3 258.1
L 373.5 259.4 380 252.95
Q 380.7 252.35 382.8 250.85 384.65 249.45 385 248.55 Z
M 396.8 233.9
Q 396.9 240.15 396.05 244.95 395.6 247.7 394.4 252.5 393.85 255 391.4 263.25 388.9 271.5 388 275.65 386.3 283.35 385.95 284.9 385.05 288.55 384.25 290.1 383.2 292.2 381.1 292.35 378.7 292.5 377.4 289.2 376.2 286.2 377.3 276.4
L 378.65 267.2
Q 373.35 272.3 367.8 277.85 362.2 283.45 354.45 296.25 352.3 299.8 351.35 300.9 349.95 302.55 348.25 302.95 346.3 303.4 345.05 301.75 343.75 300.05 344.1 296.95 344.6 292.6 345.1 289.95 345.9 285.6 347.4 280.85 348.8 276.4 354.6 263.55
L 360.15 251.65
Q 352.9 254.05 349.05 254.6 346.1 255.05 344.9 254.45 343.65 253.8 344.05 251.9 344.4 250.3 348.35 246.3 350.3 244.3 352.2 242.65 351.1 242.6 349.45 242.8 346.05 243.1 343.05 244.15 340.15 245.15 336.7 246.65 333.15 248.2 331.6 248.8 329.65 249.55 328.6 248.5 327.6 247.5 328.1 246.1 328.5 245 331.85 242.2 333.7 240.65 337.15 237.9 339.9 235.65 346.1 232.15 343.7 230.4 342.1 229.8 339.35 228.7 340.9 227 341.45 226.4 343.8 225.8 345.95 225.25 345.95 224.9 345.95 224.35 343.8 224 341.7 223.65 338.25 223.6 327.55 223.5 324.7 222.4 322.5 221.55 322 219.65 321.55 217.75 323.35 216.25 326.35 213.8 333.7 212.35 349.2 209.25 358.3 209.4 364.55 209.45 370.85 211.45 378.2 213.75 386.35 219.7 396.7 227.2 396.8 233.9 Z"/>
</defs>

<g transform="matrix( 1, 0, 0, 1, 0,0) ">
<use xlink:href="#Layer0_0_FILL"/>

<use xlink:href="#Layer0_0_1_STROKES"/>
</g>
</svg>
