
<svg xmlns="http://www.w3.org/2000/svg" version="1.1" xmlns:xlink="http://www.w3.org/1999/xlink" preserveAspectRatio="none" x="0px" y="0px" width="640px" height="480px" viewBox="0 0 640 480">
<defs>
<g id="Layer0_0_FILL">
<path fill="#3b82f6" stroke="none" d="
M 371.9 212.95
Q 365.6 211.55 364.55 211.15 352.2 206.45 346.9 206.75 342.8 207 341.4 207.45 339.4 208.05 338.45 209.8 337.45 212.4 338.55 215.45 339.75 218.7 342.45 220 344.6 221.05 348.65 222.5 353.55 224.3 354.5 224.7 357.75 226.05 360.25 228.3 356.15 229.8 354.45 230.75 351.6 232.25 350.1 233.15 347.45 234.8 346.6 236.3 344.8 239.55 349.85 241.75 354.2 243.65 361.65 243.1 365.2 242.85 367.6 241.4 365.75 243.05 364.25 244.55 363 245.8 362.65 246.3 362.25 247 362.55 247.45 363.1 248.2 367.1 246.5 368.15 246.05 369.45 245.9 365.3 250.3 359.9 255.5 355.9 259.35 352.35 265.05 348.85 270.65 348.75 273.35 348.6 276.65 348.85 277.7 349.3 279.3 350.9 279.05 352.55 278.8 357.75 275.3 362.15 272.3 366.9 268.55 372.4 264.2 381 257.05
L 381.35 257.65
Q 381.8 258.3 382.3 258.5 383.1 258.85 385.1 257.45
L 384.95 259.75
Q 384.7 262.35 384.35 263.75 383.95 265.4 384.35 266.75 384.7 268 385.5 268.2 386.6 268.45 388.8 265.3 391.65 261.3 393.75 254.45 396.35 246.15 397.25 242.25 398.35 237.65 398.15 235 397.9 231.65 392.45 225.6 386.9 219.5 381 216.25 377.05 214.05 371.9 212.95 Z"/>
</g>

<path id="Layer0_0_1_STROKES" stroke="#3b82f6" stroke-width="1" stroke-linejoin="round" stroke-linecap="round" fill="none" d="
M 338.45 209.8
Q 337.45 212.4 338.55 215.45 339.75 218.7 342.45 220 344.6 221.05 348.65 222.5 353.55 224.3 354.5 224.7 357.75 226.05 360.25 228.3 356.15 229.8 354.45 230.75 351.6 232.25 350.1 233.15 347.45 234.8 346.6 236.3 344.8 239.55 349.85 241.75 354.2 243.65 361.65 243.1 365.2 242.85 367.6 241.4 365.75 243.05 364.25 244.55 363 245.8 362.65 246.3 362.25 247 362.55 247.45 363.1 248.2 367.1 246.5 368.15 246.05 369.45 245.9 365.3 250.3 359.9 255.5 355.9 259.35 352.35 265.05 348.85 270.65 348.75 273.35 348.6 276.65 348.85 277.7 349.3 279.3 350.9 279.05 352.55 278.8 357.75 275.3 362.15 272.3 366.9 268.55 372.4 264.2 381 257.05
L 381.35 257.65
Q 381.8 258.3 382.3 258.5 383.1 258.85 385.1 257.45
L 384.95 259.75
Q 384.7 262.35 384.35 263.75 383.95 265.4 384.35 266.75 384.7 268 385.5 268.2 386.6 268.45 388.8 265.3 391.65 261.3 393.75 254.45 396.35 246.15 397.25 242.25 398.35 237.65 398.15 235 397.9 231.65 392.45 225.6 386.9 219.5 381 216.25 377.05 214.05 371.9 212.95 365.6 211.55 364.55 211.15 352.2 206.45 346.9 206.75 342.8 207 341.4 207.45 339.4 208.05 338.45 209.8 Z"/>
</defs>

<g transform="matrix( 1, 0, 0, 1, 0,0) ">
<use xlink:href="#Layer0_0_FILL"/>

<use xlink:href="#Layer0_0_1_STROKES"/>
</g>
</svg>
