
<svg xmlns="http://www.w3.org/2000/svg" version="1.1" xmlns:xlink="http://www.w3.org/1999/xlink" preserveAspectRatio="none" x="0px" y="0px" width="640px" height="480px" viewBox="0 0 640 480">
<defs>
<g id="Layer0_0_FILL">
<path fill="#3b82f6" stroke="none" d="
M 316.45 219.5
Q 316.45 219.75 316.6 219.9 316.8 220.1 317.05 220.1 317.3 220.1 317.45 219.9 317.65 219.75 317.65 219.5 317.65 219.25 317.45 219.05 317.3 218.9 317.05 218.9 316.8 218.9 316.6 219.05 316.45 219.25 316.45 219.5
M 331.4 426.3
Q 331.4 425.65 330.95 425.2 330.5 424.75 329.85 424.75 329.2 424.75 328.75 425.2 328.3 425.65 328.3 426.3 328.3 426.95 328.75 427.4 329.2 427.85 329.85 427.85 330.5 427.85 330.95 427.4 331.4 426.95 331.4 426.3
M 268.6 316.5
Q 268.6 317.55 269.35 318.3 270.1 319.05 271.15 319.05 272.2 319.05 272.95 318.3 273.7 317.55 273.7 316.5 273.7 315.45 272.95 314.7 272.2 313.95 271.15 313.95 270.1 313.95 269.35 314.7 268.6 315.45 268.6 316.5
M 294.35 355.25
Q 295.15 354.45 295.15 353.3 295.15 352.15 294.35 351.35 293.55 350.55 292.4 350.55 291.25 350.55 290.45 351.35 289.65 352.15 289.65 353.3 289.65 354.45 290.45 355.25 291.25 356.05 292.4 356.05 293.55 356.05 294.35 355.25
M 340.2 336.6
Q 340.4 335.8 340.4 334.65 340.4 333.5 340.2 332.65 340 331.85 339.7 331.85 339.4 331.85 339.2 332.65 339 333.5 339 334.65 339 335.8 339.2 336.6 339.4 337.45 339.7 337.45 340 337.45 340.2 336.6 Z"/>
</g>

<path id="Layer0_0_1_STROKES" stroke="#3b82f6" stroke-width="1" stroke-linejoin="round" stroke-linecap="round" fill="none" d="
M 340.4 334.65
Q 340.4 335.8 340.2 336.6 340 337.45 339.7 337.45 339.4 337.45 339.2 336.6 339 335.8 339 334.65 339 333.5 339.2 332.65 339.4 331.85 339.7 331.85 340 331.85 340.2 332.65 340.4 333.5 340.4 334.65 Z
M 317.65 219.5
Q 317.65 219.75 317.45 219.9 317.3 220.1 317.05 220.1 316.8 220.1 316.6 219.9 316.45 219.75 316.45 219.5 316.45 219.25 316.6 219.05 316.8 218.9 317.05 218.9 317.3 218.9 317.45 219.05 317.65 219.25 317.65 219.5 Z
M 273.7 316.5
Q 273.7 317.55 272.95 318.3 272.2 319.05 271.15 319.05 270.1 319.05 269.35 318.3 268.6 317.55 268.6 316.5 268.6 315.45 269.35 314.7 270.1 313.95 271.15 313.95 272.2 313.95 272.95 314.7 273.7 315.45 273.7 316.5 Z
M 295.15 353.3
Q 295.15 354.45 294.35 355.25 293.55 356.05 292.4 356.05 291.25 356.05 290.45 355.25 289.65 354.45 289.65 353.3 289.65 352.15 290.45 351.35 291.25 350.55 292.4 350.55 293.55 350.55 294.35 351.35 295.15 352.15 295.15 353.3 Z
M 331.4 426.3
Q 331.4 426.95 330.95 427.4 330.5 427.85 329.85 427.85 329.2 427.85 328.75 427.4 328.3 426.95 328.3 426.3 328.3 425.65 328.75 425.2 329.2 424.75 329.85 424.75 330.5 424.75 330.95 425.2 331.4 425.65 331.4 426.3 Z"/>
</defs>

<g transform="matrix( 1, 0, 0, 1, 0,0) ">
<use xlink:href="#Layer0_0_FILL"/>

<use xlink:href="#Layer0_0_1_STROKES"/>
</g>
</svg>
