<svg xmlns="http://www.w3.org/2000/svg" style="display: none;">
    <symbol id="splash-anim0001" viewBox="0 0 640 480">
        <svg xmlns="http://www.w3.org/2000/svg" version="1.1"
            xmlns:xlink="http://www.w3.org/1999/xlink" preserveAspectRatio="none" x="0px" y="0px"
            width="640px" height="480px" viewBox="0 0 640 480">
            <defs>
                <g id="Layer0_0_FILL">
                    <path fill="#3b82f6" stroke="none"
                        d="
            M 375.6 215.05
            Q 369.4978515625 213.7841796875 366.85 214 364.44375 214.2078125 362.8 215.05 361.2197265625 215.8537109375 360.75 217.05 360.1525390625 218.756640625 360.85 220.55
            L 360.85 220.5
            Q 361.444140625 221.920703125 362.55 222.7
            L 362.55 222.7
            Q 363.6134765625 223.4978515625 365.45 224
            L 365.45 224
            Q 367.2162109375 224.553515625 368.1 225.1 368.8396484375 225.59765625 369.25 226.45 368.4673828125 226.9634765625 367.65 227.65
            L 367.65 227.65
            Q 365.611328125 229.5564453125 365.75 231.7 365.8583984375 234.341015625 366.5 235.75 367.241796875 237.530078125 369.2 238.85 371.066796875 240.1171875 372.75 240.1 373.428515625 240.106640625 374.4 239.8 374.247265625 240.6826171875 374.5 241
            L 374.55 241
            Q 374.792578125 241.42421875 375.15 241.55 374.443359375 242.40234375 373.75 243.4 371.5765625 246.8576171875 372.5 249.6
            L 372.5 249.6
            Q 373.63671875 252.766796875 377.1 254.25 380.3521484375 255.6552734375 385.1 255.3 388.14296875 255.0669921875 391.9 251.25 394.819140625 248.28515625 396.15 245.6 397.4328125 243.0193359375 398.05 239.8 398.96484375 235.2271484375 397.95 231.4 396.911328125 227.1068359375 393.2 223.1 389.519921875 219.1005859375 385.4 217.7 380.977734375 216.211328125 375.6 215.05 Z" />
                </g>
            </defs>

            <g transform="matrix( 1, 0, 0, 1, 0,0) ">
                <use xlink:href="#Layer0_0_FILL" />
            </g>
        </svg>
    </symbol>
    <symbol id="splash-anim0002" viewBox="0 0 640 480">
        <svg xmlns="http://www.w3.org/2000/svg" version="1.1"
            xmlns:xlink="http://www.w3.org/1999/xlink" preserveAspectRatio="none" x="0px" y="0px"
            width="640px" height="480px" viewBox="0 0 640 480">
            <defs>
                <g id="Layer0_0_FILL">
                    <path fill="#3b82f6" stroke="none"
                        d="
            M 371.9 212.95
            Q 365.6 211.55 364.55 211.15 352.2 206.45 346.9 206.75 342.8 207 341.4 207.45 339.4 208.05 338.45 209.8 337.45 212.4 338.55 215.45 339.75 218.7 342.45 220 344.6 221.05 348.65 222.5 353.55 224.3 354.5 224.7 357.75 226.05 360.25 228.3 356.15 229.8 354.45 230.75 351.6 232.25 350.1 233.15 347.45 234.8 346.6 236.3 344.8 239.55 349.85 241.75 354.2 243.65 361.65 243.1 365.2 242.85 367.6 241.4 365.75 243.05 364.25 244.55 363 245.8 362.65 246.3 362.25 247 362.55 247.45 363.1 248.2 367.1 246.5 368.15 246.05 369.45 245.9 365.3 250.3 359.9 255.5 355.9 259.35 352.35 265.05 348.85 270.65 348.75 273.35 348.6 276.65 348.85 277.7 349.3 279.3 350.9 279.05 352.55 278.8 357.75 275.3 362.15 272.3 366.9 268.55 372.4 264.2 381 257.05
            L 381.35 257.65
            Q 381.8 258.3 382.3 258.5 383.1 258.85 385.1 257.45
            L 384.95 259.75
            Q 384.7 262.35 384.35 263.75 383.95 265.4 384.35 266.75 384.7 268 385.5 268.2 386.6 268.45 388.8 265.3 391.65 261.3 393.75 254.45 396.35 246.15 397.25 242.25 398.35 237.65 398.15 235 397.9 231.65 392.45 225.6 386.9 219.5 381 216.25 377.05 214.05 371.9 212.95 Z" />
                </g>

                <path id="Layer0_0_1_STROKES" stroke="#3b82f6" stroke-width="1"
                    stroke-linejoin="round" stroke-linecap="round" fill="none"
                    d="
            M 338.45 209.8
            Q 337.45 212.4 338.55 215.45 339.75 218.7 342.45 220 344.6 221.05 348.65 222.5 353.55 224.3 354.5 224.7 357.75 226.05 360.25 228.3 356.15 229.8 354.45 230.75 351.6 232.25 350.1 233.15 347.45 234.8 346.6 236.3 344.8 239.55 349.85 241.75 354.2 243.65 361.65 243.1 365.2 242.85 367.6 241.4 365.75 243.05 364.25 244.55 363 245.8 362.65 246.3 362.25 247 362.55 247.45 363.1 248.2 367.1 246.5 368.15 246.05 369.45 245.9 365.3 250.3 359.9 255.5 355.9 259.35 352.35 265.05 348.85 270.65 348.75 273.35 348.6 276.65 348.85 277.7 349.3 279.3 350.9 279.05 352.55 278.8 357.75 275.3 362.15 272.3 366.9 268.55 372.4 264.2 381 257.05
            L 381.35 257.65
            Q 381.8 258.3 382.3 258.5 383.1 258.85 385.1 257.45
            L 384.95 259.75
            Q 384.7 262.35 384.35 263.75 383.95 265.4 384.35 266.75 384.7 268 385.5 268.2 386.6 268.45 388.8 265.3 391.65 261.3 393.75 254.45 396.35 246.15 397.25 242.25 398.35 237.65 398.15 235 397.9 231.65 392.45 225.6 386.9 219.5 381 216.25 377.05 214.05 371.9 212.95 365.6 211.55 364.55 211.15 352.2 206.45 346.9 206.75 342.8 207 341.4 207.45 339.4 208.05 338.45 209.8 Z" />
            </defs>

            <g transform="matrix( 1, 0, 0, 1, 0,0) ">
                <use xlink:href="#Layer0_0_FILL" />

                <use xlink:href="#Layer0_0_1_STROKES" />
            </g>
        </svg>
    </symbol>
    <symbol id="splash-anim0003" viewBox="0 0 640 480">

        <svg xmlns="http://www.w3.org/2000/svg" version="1.1"
            xmlns:xlink="http://www.w3.org/1999/xlink" preserveAspectRatio="none" x="0px" y="0px"
            width="640px" height="480px" viewBox="0 0 640 480">
            <defs>
                <g id="Layer0_0_FILL">
                    <path fill="#3b82f6" stroke="none"
                        d="
    M 396.05 244.95
    Q 396.9 240.15 396.8 233.9 396.7 227.2 386.35 219.7 378.2 213.75 370.85 211.45 364.55 209.45 358.3 209.4 349.2 209.25 333.7 212.35 326.35 213.8 323.35 216.25 321.55 217.75 322 219.65 322.5 221.55 324.7 222.4 327.55 223.5 338.25 223.6 341.7 223.65 343.8 224 345.95 224.35 345.95 224.9 345.95 225.25 343.8 225.8 341.45 226.4 340.9 227 339.35 228.7 342.1 229.8 343.7 230.4 346.1 232.15 339.9 235.65 337.15 237.9 333.7 240.65 331.85 242.2 328.5 245 328.1 246.1 327.6 247.5 328.6 248.5 329.65 249.55 331.6 248.8 333.15 248.2 336.7 246.65 340.15 245.15 343.05 244.15 346.05 243.1 349.45 242.8 351.1 242.6 352.2 242.65 350.3 244.3 348.35 246.3 344.4 250.3 344.05 251.9 343.65 253.8 344.9 254.45 346.1 255.05 349.05 254.6 352.9 254.05 360.15 251.65
    L 354.6 263.55
    Q 348.8 276.4 347.4 280.85 345.9 285.6 345.1 289.95 344.6 292.6 344.1 296.95 343.75 300.05 345.05 301.75 346.3 303.4 348.25 302.95 349.95 302.55 351.35 300.9 352.3 299.8 354.45 296.25 362.2 283.45 367.8 277.85 373.35 272.3 378.65 267.2
    L 377.3 276.4
    Q 376.2 286.2 377.4 289.2 378.7 292.5 381.1 292.35 383.2 292.2 384.25 290.1 385.05 288.55 385.95 284.9 386.3 283.35 388 275.65 388.9 271.5 391.4 263.25 393.85 255 394.4 252.5 395.6 247.7 396.05 244.95
    M 381.25 244.9
    Q 382.85 244.6 384 245.45 385.05 246.2 385.25 246.95 385.4 247.6 385 248.55 384.65 249.45 382.8 250.85 380.7 252.35 380 252.95
    L 373.5 259.4 374.3 258.1
    Q 375.3 256.55 376.15 255.5 377 254.45 377.6 252.3
    L 373.4 255.1
    Q 371.65 256.25 370.15 257.65
    L 368.95 258.85 372.4 253.5
    Q 376.2 247.9 377.85 246.6 379.6 245.2 381.25 244.9
    M 377.35 226.6
    Q 378 227 379.45 227.6 380.8 228.2 381.15 228.45 382.55 229.45 382.75 229.6 383.45 230.15 383.7 230.75 384.3 232 383 232.35 382.65 232.45 382.05 232.05 381.3 231.55 380.8 231.45
    L 377.2 230.9 377.3 230.7
    Q 377.45 230.45 377.8 230.35
    L 379.2 229.85
    Q 377.9 229.4 376.1 227.65 375 226.6 374.4 225.55
    L 374.1 224.75 377.35 226.6 Z" />
                </g>

                <path id="Layer0_0_1_STROKES" stroke="#3b82f6" stroke-width="1"
                    stroke-linejoin="round" stroke-linecap="round" fill="none"
                    d="
    M 381.15 228.45
    Q 382.55 229.45 382.75 229.6 383.45 230.15 383.7 230.75 384.3 232 383 232.35 382.65 232.45 382.05 232.05 381.3 231.55 380.8 231.45
    L 377.2 230.9 377.3 230.7
    Q 377.45 230.45 377.8 230.35
    L 379.2 229.85
    Q 377.9 229.4 376.1 227.65 375 226.6 374.4 225.55
    L 374.1 224.75 377.35 226.6
    Q 378 227 379.45 227.6 380.8 228.2 381.15 228.45 Z
    M 385 248.55
    Q 385.4 247.6 385.25 246.95 385.05 246.2 384 245.45 382.85 244.6 381.25 244.9 379.6 245.2 377.85 246.6 376.2 247.9 372.4 253.5
    L 368.95 258.85 370.15 257.65
    Q 371.65 256.25 373.4 255.1
    L 377.6 252.3
    Q 377 254.45 376.15 255.5 375.3 256.55 374.3 258.1
    L 373.5 259.4 380 252.95
    Q 380.7 252.35 382.8 250.85 384.65 249.45 385 248.55 Z
    M 396.8 233.9
    Q 396.9 240.15 396.05 244.95 395.6 247.7 394.4 252.5 393.85 255 391.4 263.25 388.9 271.5 388 275.65 386.3 283.35 385.95 284.9 385.05 288.55 384.25 290.1 383.2 292.2 381.1 292.35 378.7 292.5 377.4 289.2 376.2 286.2 377.3 276.4
    L 378.65 267.2
    Q 373.35 272.3 367.8 277.85 362.2 283.45 354.45 296.25 352.3 299.8 351.35 300.9 349.95 302.55 348.25 302.95 346.3 303.4 345.05 301.75 343.75 300.05 344.1 296.95 344.6 292.6 345.1 289.95 345.9 285.6 347.4 280.85 348.8 276.4 354.6 263.55
    L 360.15 251.65
    Q 352.9 254.05 349.05 254.6 346.1 255.05 344.9 254.45 343.65 253.8 344.05 251.9 344.4 250.3 348.35 246.3 350.3 244.3 352.2 242.65 351.1 242.6 349.45 242.8 346.05 243.1 343.05 244.15 340.15 245.15 336.7 246.65 333.15 248.2 331.6 248.8 329.65 249.55 328.6 248.5 327.6 247.5 328.1 246.1 328.5 245 331.85 242.2 333.7 240.65 337.15 237.9 339.9 235.65 346.1 232.15 343.7 230.4 342.1 229.8 339.35 228.7 340.9 227 341.45 226.4 343.8 225.8 345.95 225.25 345.95 224.9 345.95 224.35 343.8 224 341.7 223.65 338.25 223.6 327.55 223.5 324.7 222.4 322.5 221.55 322 219.65 321.55 217.75 323.35 216.25 326.35 213.8 333.7 212.35 349.2 209.25 358.3 209.4 364.55 209.45 370.85 211.45 378.2 213.75 386.35 219.7 396.7 227.2 396.8 233.9 Z" />
            </defs>

            <g transform="matrix( 1, 0, 0, 1, 0,0) ">
                <use xlink:href="#Layer0_0_FILL" />

                <use xlink:href="#Layer0_0_1_STROKES" />
            </g>
        </svg>
    </symbol>
    <symbol id="splash-anim0004" viewBox="0 0 640 480">

        <svg xmlns="http://www.w3.org/2000/svg" version="1.1"
            xmlns:xlink="http://www.w3.org/1999/xlink" preserveAspectRatio="none" x="0px" y="0px"
            width="640px" height="480px" viewBox="0 0 640 480">
            <defs>
                <g id="Layer0_0_FILL">
                    <path fill="#3b82f6" stroke="none"
                        d="
            M 389.7 222.1
            Q 388.55 217.9 387.5 215.5 385.5 210.95 382.4 211.55 379.6 212.15 378.75 214.7 378.4 215.75 378.15 215.95 377.7 216.35 376.55 215.8 358.7 207.15 330.45 207.1 322.15 207.1 316 211.55 311 215.2 309.7 219.65 308.75 223 310 225.9 311.25 228.7 313.95 229.4 318.1 230.45 320.95 230 324.35 229.4 328.65 226.35 332.9 223.35 336.5 223.2 339.75 223 339.8 224.85 339.85 226.05 337.55 226.35 334.5 226.8 333.65 227.4 331.95 228.6 332.6 230.5 333.25 232.4 335.7 232.05 339.1 231.55 342.2 231.8 340.25 232.45 337.75 233.55 332.7 235.8 329.8 238.35 325.15 242.4 322.45 245.4 318.4 249.9 317.1 253.65 315.7 257.65 318 258.4 320.2 259.15 323 256.55 325.05 254.65 329.3 251.7 335.35 247.45 336.6 246.5 339.65 244.2 345.3 243.2 348.1 242.7 350.3 242.65 342.45 246.5 339 249.05 336.5 250.9 334.5 254.25 332.6 257.4 331.55 261.15 330.65 264.4 333.2 264.95 335.4 265.4 337.25 264.05 338.2 263.35 341 261.1 344 258.7 346.95 256.75 350 254.75 353.1 254.7 354.65 254.65 355.6 255
            L 346.6 261.7
            Q 339.7 266.8 334.9 280.4 334.2 282.45 329.9 288.1 326.3 292.85 326.05 296.75 325.7 302.3 327.3 305.85 329.05 309.8 332.7 310 335.9 310.2 338.45 309.3 339.7 308.85 340.3 308.35
            L 339.2 312.6
            Q 338.4 317.95 340.15 323.5 342.05 329.5 346.7 327.5 350.75 325.75 352.9 321.1 354.15 318.45 355.85 310.8 358.3 299.95 360.1 293.7 363 283.55 364.9 281.85 366.5 280.45 370.65 283.05 373.2 284.65 374 288.2 374.3 289.5 374.4 292.75 374.55 297.1 375.55 301.55 376.8 307.35 378.75 308.8 382.65 311.65 386.25 303.1 387.4 300.35 387.55 296.05 387.75 288.45 388.35 283.2 389.3 275.25 390.55 267.6
            L 391.6 261.5
            Q 391.15 261.6 389.85 262.85 386.9 265.65 384 264.5 382.75 264 383.3 262.75 383.6 262 385.1 260.25 386.05 259.15 385.7 258.45
            L 385.1 257.95
            Q 376.7 258.8 373.5 259.8 370.2 260.85 362.8 266 355.8 271.15 355.15 271.55 354 272.3 353.05 271.75 351.9 271.15 352.45 269.1 352.95 267.3 356.3 264.25 363.5 257.75 363.75 257.5 367.25 254.05 372.55 250.95 375.2 249.45 377.15 248.6 376.25 248.15 374.55 247.8 371.2 247.15 367.4 247.7 363.75 248.25 363.9 245.35 364.1 243.6 364.2 242.7 364.35 241.05 363.95 240.2 363.6 239.45 361.65 239.3 358.8 239.1 357.6 238.7 355.25 237.95 356 236.4 356.75 234.8 359.95 234.9 368.85 235.2 369.25 232.3 369.7 229.25 366.65 226.15 363.55 223 358.45 221.45 353.65 220.55 352 220.2 349.3 219.55 350.8 217.85 351.8 216.7 355.9 216.95 359.5 217.2 363.3 218.25 367.6 219.45 383.8 227.55 398.35 234.85 398.35 234.4 397.05 233.15 395.3 231 391.8 226.65 389.7 222.1 Z" />
                </g>

                <path id="Layer0_0_1_STROKES" stroke="#3b82f6" stroke-width="1"
                    stroke-linejoin="round" stroke-linecap="round" fill="none"
                    d="
            M 395.3 231
            Q 397.05 233.15 398.35 234.4 398.35 234.85 383.8 227.55 367.6 219.45 363.3 218.25 359.5 217.2 355.9 216.95 351.8 216.7 350.8 217.85 349.3 219.55 352 220.2 353.65 220.55 358.45 221.45 363.55 223 366.65 226.15 369.7 229.25 369.25 232.3 368.85 235.2 359.95 234.9 356.75 234.8 356 236.4 355.25 237.95 357.6 238.7 358.8 239.1 361.65 239.3 363.6 239.45 363.95 240.2 364.35 241.05 364.2 242.7 364.1 243.6 363.9 245.35 363.75 248.25 367.4 247.7 371.2 247.15 374.55 247.8 376.25 248.15 377.15 248.6 375.2 249.45 372.55 250.95 367.25 254.05 363.75 257.5 363.5 257.75 356.3 264.25 352.95 267.3 352.45 269.1 351.9 271.15 353.05 271.75 354 272.3 355.15 271.55 355.8 271.15 362.8 266 370.2 260.85 373.5 259.8 376.7 258.8 385.1 257.95
            L 385.7 258.45
            Q 386.05 259.15 385.1 260.25 383.6 262 383.3 262.75 382.75 264 384 264.5 386.9 265.65 389.85 262.85 391.15 261.6 391.6 261.5
            L 390.55 267.6
            Q 389.3 275.25 388.35 283.2 387.75 288.45 387.55 296.05 387.4 300.35 386.25 303.1 382.65 311.65 378.75 308.8 376.8 307.35 375.55 301.55 374.55 297.1 374.4 292.75 374.3 289.5 374 288.2 373.2 284.65 370.65 283.05 366.5 280.45 364.9 281.85 363 283.55 360.1 293.7 358.3 299.95 355.85 310.8 354.15 318.45 352.9 321.1 350.75 325.75 346.7 327.5 342.05 329.5 340.15 323.5 338.4 317.95 339.2 312.6
            L 340.3 308.35
            Q 339.7 308.85 338.45 309.3 335.9 310.2 332.7 310 329.05 309.8 327.3 305.85 325.7 302.3 326.05 296.75 326.3 292.85 329.9 288.1 334.2 282.45 334.9 280.4 339.7 266.8 346.6 261.7
            L 355.6 255
            Q 354.65 254.65 353.1 254.7 350 254.75 346.95 256.75 344 258.7 341 261.1 338.2 263.35 337.25 264.05 335.4 265.4 333.2 264.95 330.65 264.4 331.55 261.15 332.6 257.4 334.5 254.25 336.5 250.9 339 249.05 342.45 246.5 350.3 242.65 348.1 242.7 345.3 243.2 339.65 244.2 336.6 246.5 335.35 247.45 329.3 251.7 325.05 254.65 323 256.55 320.2 259.15 318 258.4 315.7 257.65 317.1 253.65 318.4 249.9 322.45 245.4 325.15 242.4 329.8 238.35 332.7 235.8 337.75 233.55 340.25 232.45 342.2 231.8 339.1 231.55 335.7 232.05 333.25 232.4 332.6 230.5 331.95 228.6 333.65 227.4 334.5 226.8 337.55 226.35 339.85 226.05 339.8 224.85 339.75 223 336.5 223.2 332.9 223.35 328.65 226.35 324.35 229.4 320.95 230 318.1 230.45 313.95 229.4 311.25 228.7 310 225.9 308.75 223 309.7 219.65 311 215.2 316 211.55 322.15 207.1 330.45 207.1 358.7 207.15 376.55 215.8 377.7 216.35 378.15 215.95 378.4 215.75 378.75 214.7 379.6 212.15 382.4 211.55 385.5 210.95 387.5 215.5 388.55 217.9 389.7 222.1 391.8 226.65 395.3 231 Z" />
            </defs>

            <g transform="matrix( 1, 0, 0, 1, 0,0) ">
                <use xlink:href="#Layer0_0_FILL" />

                <use xlink:href="#Layer0_0_1_STROKES" />
            </g>
        </svg>

    </symbol>
    <symbol id="splash-anim0005" viewBox="0 0 640 480">

        <svg xmlns="http://www.w3.org/2000/svg" version="1.1"
            xmlns:xlink="http://www.w3.org/1999/xlink" preserveAspectRatio="none" x="0px" y="0px"
            width="640px" height="480px" viewBox="0 0 640 480">
            <defs>
                <g id="Layer0_0_FILL">
                    <path fill="#3b82f6" stroke="none"
                        d="
            M 345.55 218.05
            Q 349.25 218.2 347.1 215.55 344.9 212.75 338.5 210.15 331.35 207.2 326.2 206.7 321.15 206.1 315.55 207.65 307.2 209.95 301.15 213.65 298.85 215.05 294.3 218.75 289.3 222.85 287.05 227.65 285.3 231.4 285.75 233.4 286.55 236.7 290.95 237.35 295.65 238.05 299.25 234.3 300.4 233.05 303.65 228.65 307.1 224.25 310.4 221.95 317.9 216.65 323.1 215.9 326.25 215.5 332.5 216.1 335.35 216.15 339.3 217 343.65 217.95 345.55 218.05
            M 376.1 196.4
            Q 377.15 196.05 378.5 197.65 379.3 198.6 381.45 201.65 383.8 204.75 387.9 209.95 387.1 207.75 385.8 204.8 383.15 199 380.5 195.45 377.7 191.7 375.45 190.25 374.3 189.45 372.05 189 370.05 188.5 368.3 189.3 366.25 190.25 366.8 192.5 367.4 194.95 368.35 196.65 369.25 198.2 371.3 200.7 374 203.95 380.65 209 377.8 206.05 376.4 202.3 375.2 199.25 375.1 198.15 374.95 196.75 376.1 196.4
            M 374.35 278.45
            Q 371.65 286.7 371 291.05 369.1 303.4 372.25 317.1 374.55 327.25 377.05 330.85 378.4 332.75 380.8 334.25 383 335.65 384.25 335.55 386.05 335.45 387.2 334 388.95 331.8 388.35 327.3 387.15 318.15 386.7 313.1 385.8 302.85 386.1 295.2 386.4 287.85 387.35 278.3
            L 388.25 270.25 385.85 275.75
            Q 383.15 282.25 381.85 287.5 380.8 291.75 380.45 295.75 380.25 297.65 380.1 302.9 379.95 307.6 379.65 309.9 379.15 313.2 378.15 313.3 377.1 313.4 376.5 311.15 376.05 309.4 375.65 305.45 375 299 374.8 296 374.6 292.05 374.85 287.9 375.05 284.25 376 277.3
            L 376.9 271.1 374.35 278.45
            M 334.2 292.7
            Q 334.7 288.4 336.65 282.9
            L 338.45 278.25
            Q 337.3 279.25 335.55 281.25 332.1 285.2 329.4 290 326.2 295.65 324.95 299.7 323.75 303.45 322.6 311.3 321.6 318.2 324.6 323.85 327.05 328.45 330.25 329.6 332.4 330.35 334.4 329.65 335.4 329.3 335.95 328.8
            L 335.8 330.45
            Q 335.8 332.6 336.5 335.05 337.45 338.4 338.8 340.3 340.55 342.65 343.45 343.5 346.3 344.3 348.15 342.35 349.45 341 350.75 337.5 351.8 334.8 353.1 324.85 354.35 315.2 354.95 306.35 355.4 299.15 360.15 286.45
            L 364.75 275.15
            Q 362.15 278.75 359.35 283.05 353.7 291.75 352.55 295.6 351.3 299.95 349.05 303.3 346.95 306.45 346.15 305.85 345.3 305.25 345 303.25 344.6 300.95 345.05 297.4 345.45 294.25 347.05 290.65
            L 348.55 287.65
            Q 347.5 288.55 346.3 289.95 343.8 292.7 342.85 295.05 341.6 298.1 339.75 300 337.75 302.15 336.05 301.7 334.25 301.25 333.95 299.55 333.6 297.9 334.2 292.7
            M 353.8 251.25
            Q 351.35 253.2 346.55 255.35 341.7 257.4 340.5 257.9 338.9 258.6 338 257.8 337.3 257.2 337.2 255.8 337.15 254.85 339.3 253 340.4 252.1 341.5 251.4 338.15 253.05 336.25 254.2 335.05 254.9 333.8 254.95
            L 332.8 254.85
            Q 330.7 256.6 328.5 259.35 324 264.8 323.25 269.7 322.45 274.9 324.95 275.8 327 276.55 328.75 274.75 330.4 273.05 336.05 268 339.75 264.55 345.4 261.1
            L 345.25 261.95
            Q 345.1 263 345.2 263.9 345.3 264.85 346.9 265.25 348.3 265.6 349.35 265.35 350.45 265.1 352.45 263 354.9 260.45 356.1 257.35 357.25 254.45 359.45 250.3 360.55 248.2 361.4 246.7 357.7 248.15 353.8 251.25
            M 332.75 226.65
            Q 326.9 229.5 325.25 231 323.7 232.35 324.75 233.55 325.65 234.55 328.45 234.9 330.5 235.1 332.45 234.95 334.2 234.8 335.6 234.1 334.2 236.05 331.95 236.8 327.75 237.75 324.15 239.4 317.2 242.55 313.15 248.55 308.5 255.4 307.2 259.5 306 263.2 307.35 265.55 308.65 267.85 310.25 268 311.9 268.2 314.4 265.95 315.45 265 318.9 261.2 321.6 258.2 324.1 256.5 328.4 253.55 330.15 252.45 330 252.05 330.1 251.45 330.35 250.3 331.7 249.35 333.35 248.2 336.85 246.35 340.45 244.4 342.5 243.6 345.3 242.5 352.1 240.05 348.9 239.6 345.3 240.55 343.75 240.95 341.65 241.8 340.4 242.35 339.55 242.25 335.55 241.85 339.45 239.1 342.35 237.05 345.55 235.45 349.3 233.6 352.45 232.95 356.95 232 365.35 232.4 364.95 231.3 363.65 229.9 361.1 227.15 356.85 225.75 351.1 223.9 345.25 223.9 338.35 223.95 332.75 226.65 Z" />
                </g>

                <path id="Layer0_0_1_STROKES" stroke="#3b82f6" stroke-width="1"
                    stroke-linejoin="round" stroke-linecap="round" fill="none"
                    d="
            M 387.9 209.95
            Q 387.1 207.75 385.8 204.8 383.15 199 380.5 195.45 377.7 191.7 375.45 190.25 374.3 189.45 372.05 189 370.05 188.5 368.3 189.3 366.25 190.25 366.8 192.5 367.4 194.95 368.35 196.65 369.25 198.2 371.3 200.7 374 203.95 380.65 209 377.8 206.05 376.4 202.3 375.2 199.25 375.1 198.15 374.95 196.75 376.1 196.4 377.15 196.05 378.5 197.65 379.3 198.6 381.45 201.65 383.8 204.75 387.9 209.95 Z
            M 315.55 207.65
            Q 321.15 206.1 326.2 206.7 331.35 207.2 338.5 210.15 344.9 212.75 347.1 215.55 349.25 218.2 345.55 218.05 343.65 217.95 339.3 217 335.35 216.15 332.5 216.1 326.25 215.5 323.1 215.9 317.9 216.65 310.4 221.95 307.1 224.25 303.65 228.65 300.4 233.05 299.25 234.3 295.65 238.05 290.95 237.35 286.55 236.7 285.75 233.4 285.3 231.4 287.05 227.65 289.3 222.85 294.3 218.75 298.85 215.05 301.15 213.65 307.2 209.95 315.55 207.65 Z
            M 365.35 232.4
            Q 364.95 231.3 363.65 229.9 361.1 227.15 356.85 225.75 351.1 223.9 345.25 223.9 338.35 223.95 332.75 226.65 326.9 229.5 325.25 231 323.7 232.35 324.75 233.55 325.65 234.55 328.45 234.9 330.5 235.1 332.45 234.95 334.2 234.8 335.6 234.1 334.2 236.05 331.95 236.8 327.75 237.75 324.15 239.4 317.2 242.55 313.15 248.55 308.5 255.4 307.2 259.5 306 263.2 307.35 265.55 308.65 267.85 310.25 268 311.9 268.2 314.4 265.95 315.45 265 318.9 261.2 321.6 258.2 324.1 256.5 328.4 253.55 330.15 252.45 330 252.05 330.1 251.45 330.35 250.3 331.7 249.35 333.35 248.2 336.85 246.35 340.45 244.4 342.5 243.6 345.3 242.5 352.1 240.05 348.9 239.6 345.3 240.55 343.75 240.95 341.65 241.8 340.4 242.35 339.55 242.25 335.55 241.85 339.45 239.1 342.35 237.05 345.55 235.45 349.3 233.6 352.45 232.95 356.95 232 365.35 232.4 Z
            M 361.4 246.7
            Q 360.55 248.2 359.45 250.3 357.25 254.45 356.1 257.35 354.9 260.45 352.45 263 350.45 265.1 349.35 265.35 348.3 265.6 346.9 265.25 345.3 264.85 345.2 263.9 345.1 263 345.25 261.95
            L 345.4 261.1
            Q 339.75 264.55 336.05 268 330.4 273.05 328.75 274.75 327 276.55 324.95 275.8 322.45 274.9 323.25 269.7 324 264.8 328.5 259.35 330.7 256.6 332.8 254.85
            L 333.8 254.95
            Q 335.05 254.9 336.25 254.2 338.15 253.05 341.5 251.4 340.4 252.1 339.3 253 337.15 254.85 337.2 255.8 337.3 257.2 338 257.8 338.9 258.6 340.5 257.9 341.7 257.4 346.55 255.35 351.35 253.2 353.8 251.25 357.7 248.15 361.4 246.7 Z
            M 364.75 275.15
            L 360.15 286.45
            Q 355.4 299.15 354.95 306.35 354.35 315.2 353.1 324.85 351.8 334.8 350.75 337.5 349.45 341 348.15 342.35 346.3 344.3 343.45 343.5 340.55 342.65 338.8 340.3 337.45 338.4 336.5 335.05 335.8 332.6 335.8 330.45
            L 335.95 328.8
            Q 335.4 329.3 334.4 329.65 332.4 330.35 330.25 329.6 327.05 328.45 324.6 323.85 321.6 318.2 322.6 311.3 323.75 303.45 324.95 299.7 326.2 295.65 329.4 290 332.1 285.2 335.55 281.25 337.3 279.25 338.45 278.25
            L 336.65 282.9
            Q 334.7 288.4 334.2 292.7 333.6 297.9 333.95 299.55 334.25 301.25 336.05 301.7 337.75 302.15 339.75 300 341.6 298.1 342.85 295.05 343.8 292.7 346.3 289.95 347.5 288.55 348.55 287.65
            L 347.05 290.65
            Q 345.45 294.25 345.05 297.4 344.6 300.95 345 303.25 345.3 305.25 346.15 305.85 346.95 306.45 349.05 303.3 351.3 299.95 352.55 295.6 353.7 291.75 359.35 283.05 362.15 278.75 364.75 275.15 Z
            M 388.25 270.25
            L 387.35 278.3
            Q 386.4 287.85 386.1 295.2 385.8 302.85 386.7 313.1 387.15 318.15 388.35 327.3 388.95 331.8 387.2 334 386.05 335.45 384.25 335.55 383 335.65 380.8 334.25 378.4 332.75 377.05 330.85 374.55 327.25 372.25 317.1 369.1 303.4 371 291.05 371.65 286.7 374.35 278.45
            L 376.9 271.1 376 277.3
            Q 375.05 284.25 374.85 287.9 374.6 292.05 374.8 296 375 299 375.65 305.45 376.05 309.4 376.5 311.15 377.1 313.4 378.15 313.3 379.15 313.2 379.65 309.9 379.95 307.6 380.1 302.9 380.25 297.65 380.45 295.75 380.8 291.75 381.85 287.5 383.15 282.25 385.85 275.75
            L 388.25 270.25 Z" />
            </defs>

            <g transform="matrix( 1, 0, 0, 1, 0,0) ">
                <use xlink:href="#Layer0_0_FILL" />

                <use xlink:href="#Layer0_0_1_STROKES" />
            </g>
        </svg>

    </symbol>
    <symbol id="splash-anim0006" viewBox="0 0 640 480">

        <svg xmlns="http://www.w3.org/2000/svg" version="1.1"
            xmlns:xlink="http://www.w3.org/1999/xlink" preserveAspectRatio="none" x="0px" y="0px"
            width="640px" height="480px" viewBox="0 0 640 480">
            <defs>
                <g id="Layer0_0_FILL">
                    <path fill="#3b82f6" stroke="none"
                        d="
    M 355.3 181.1
    Q 353.75 182.2 354 185 354.15 186.2 358.95 188.65 361.5 189.9 365.25 191.5
    L 372.1 194.95
    Q 368.3 189 365.2 185.25 362.95 182.55 361.6 181.6 360.4 180.8 358.45 180.5 356.55 180.2 355.3 181.1
    M 381.6 305.3
    Q 380.3 314.5 380 318.3 379.75 321.95 379 325.85 378.6 327.85 378.1 330.45 376.75 339.35 376.25 341.8
    L 375.8 345.3
    Q 375.65 349.6 377.05 353.6 378.55 357.85 381.85 355.7 384.65 353.75 385.7 350.4 386.8 346.85 387.15 344.45 387.8 340.4 387.35 335.25 387.05 331.45 385.6 321.45 384.3 312.05 384.1 309.1 383.9 305.5 383.35 300.8
    L 382.9 296.85 381.6 305.3
    M 348.35 316.05
    Q 347.35 317.45 345.95 319.75 343.2 324.4 341.75 328.6 339.95 333.7 339.15 341.45 338.35 349.25 339.15 353.9 339.9 358.2 343.1 359.35 345.9 360.4 348 358.65 349.6 357.3 349.4 352.6 349.35 351.45 348 338.15 347.15 329.9 347.65 322.15
    L 348.35 316.05
    M 337.7 303.65
    Q 336.9 303.1 335.35 304.8 332.35 310.45 328.2 320.6 322.45 334.65 320.15 344.75 316.3 361.7 326 368 328.85 369.85 331.75 368.05 334.8 366.15 334.65 361.7
    L 333.95 338.45
    Q 333.7 330.4 335.3 319.75 336.45 312.1 337.75 307.15 338.55 304.2 337.7 303.65
    M 352.1 263.7
    Q 352.75 262.5 353.25 261.7 351.8 261.95 349.95 262.65 346.25 264.05 344.2 266.25 336.8 274.2 340.85 277.55 343.25 279.55 345.15 278.85 346.65 278.3 348.15 275.85 349.1 274.35 349.2 272.3 349.35 269.85 349.95 268.3 350.8 266.15 352.1 263.7
    M 336.2 264.65
    Q 333.1 266.15 329.55 268.45 322.45 273 320.3 277.05 317.6 282.15 316.65 285.6 315.6 289.45 316.4 292.3 317.15 295.05 320.1 294.8 322.6 294.55 325.05 292.5 326.7 291.15 327.3 287.05 328.25 280.5 328.7 279 329.75 275.35 333.1 269.65 334.75 266.8 336.2 264.65
    M 334.7 247.3
    Q 332.9 247.5 330.15 248.15 324.65 249.5 319.85 251.95 313.4 255.2 311.4 256.75 308.35 259.1 303.55 265.2 298.35 271.85 296.05 277.8 293.75 283.8 295.85 285.55 298 287.3 300.2 286.8 302.4 286.3 304.1 283.6 305.9 280.7 314.6 266.05 319.4 258 327.5 251.85 331.6 248.75 334.7 247.3
    M 287.1 245.2
    Q 289.2 236.6 289.9 233.9 291 229.85 293.55 225.2 296.1 220.55 301.2 214.9 303.75 212.05 305.75 210.15 301.35 211.15 296.15 213.15 285.75 217.25 281.8 222.55 276.85 229.2 274.5 234.4 272 240.05 272.15 245 272.3 249.85 273.7 252.45 274.9 254.75 277.3 255.7 283.55 258.25 287.1 245.2 Z" />
                </g>

                <path id="Layer0_0_1_STROKES" stroke="#3b82f6" stroke-width="1"
                    stroke-linejoin="round" stroke-linecap="round" fill="none"
                    d="
    M 354 185
    Q 354.15 186.2 358.95 188.65 361.5 189.9 365.25 191.5
    L 372.1 194.95
    Q 368.3 189 365.2 185.25 362.95 182.55 361.6 181.6 360.4 180.8 358.45 180.5 356.55 180.2 355.3 181.1 353.75 182.2 354 185 Z
    M 353.25 261.7
    Q 351.8 261.95 349.95 262.65 346.25 264.05 344.2 266.25 336.8 274.2 340.85 277.55 343.25 279.55 345.15 278.85 346.65 278.3 348.15 275.85 349.1 274.35 349.2 272.3 349.35 269.85 349.95 268.3 350.8 266.15 352.1 263.7 352.75 262.5 353.25 261.7 Z
    M 336.2 264.65
    Q 333.1 266.15 329.55 268.45 322.45 273 320.3 277.05 317.6 282.15 316.65 285.6 315.6 289.45 316.4 292.3 317.15 295.05 320.1 294.8 322.6 294.55 325.05 292.5 326.7 291.15 327.3 287.05 328.25 280.5 328.7 279 329.75 275.35 333.1 269.65 334.75 266.8 336.2 264.65 Z
    M 334.7 247.3
    Q 331.6 248.75 327.5 251.85 319.4 258 314.6 266.05 305.9 280.7 304.1 283.6 302.4 286.3 300.2 286.8 298 287.3 295.85 285.55 293.75 283.8 296.05 277.8 298.35 271.85 303.55 265.2 308.35 259.1 311.4 256.75 313.4 255.2 319.85 251.95 324.65 249.5 330.15 248.15 332.9 247.5 334.7 247.3 Z
    M 376.25 341.8
    Q 376.75 339.35 378.1 330.45 378.6 327.85 379 325.85 379.75 321.95 380 318.3 380.3 314.5 381.6 305.3
    L 382.9 296.85 383.35 300.8
    Q 383.9 305.5 384.1 309.1 384.3 312.05 385.6 321.45 387.05 331.45 387.35 335.25 387.8 340.4 387.15 344.45 386.8 346.85 385.7 350.4 384.65 353.75 381.85 355.7 378.55 357.85 377.05 353.6 375.65 349.6 375.8 345.3
    L 376.25 341.8 Z
    M 348.35 316.05
    L 347.65 322.15
    Q 347.15 329.9 348 338.15 349.35 351.45 349.4 352.6 349.6 357.3 348 358.65 345.9 360.4 343.1 359.35 339.9 358.2 339.15 353.9 338.35 349.25 339.15 341.45 339.95 333.7 341.75 328.6 343.2 324.4 345.95 319.75 347.35 317.45 348.35 316.05 Z
    M 335.35 304.8
    Q 336.9 303.1 337.7 303.65 338.55 304.2 337.75 307.15 336.45 312.1 335.3 319.75 333.7 330.4 333.95 338.45
    L 334.65 361.7
    Q 334.8 366.15 331.75 368.05 328.85 369.85 326 368 316.3 361.7 320.15 344.75 322.45 334.65 328.2 320.6 332.35 310.45 335.35 304.8 Z
    M 305.75 210.15
    Q 301.35 211.15 296.15 213.15 285.75 217.25 281.8 222.55 276.85 229.2 274.5 234.4 272 240.05 272.15 245 272.3 249.85 273.7 252.45 274.9 254.75 277.3 255.7 283.55 258.25 287.1 245.2 289.2 236.6 289.9 233.9 291 229.85 293.55 225.2 296.1 220.55 301.2 214.9 303.75 212.05 305.75 210.15 Z" />
            </defs>

            <g transform="matrix( 1, 0, 0, 1, 0,0) ">
                <use xlink:href="#Layer0_0_FILL" />

                <use xlink:href="#Layer0_0_1_STROKES" />
            </g>
        </svg>

    </symbol>
    <symbol id="splash-anim0007" viewBox="0 0 640 480">

        <svg xmlns="http://www.w3.org/2000/svg" version="1.1"
            xmlns:xlink="http://www.w3.org/1999/xlink" preserveAspectRatio="none" x="0px" y="0px"
            width="640px" height="480px" viewBox="0 0 640 480">
            <defs>
                <g id="Layer0_0_FILL">
                    <path fill="#3b82f6" stroke="none"
                        d="
        M 338.55 190.25
        Q 337.7 192.85 338.4 194.4 339 196 340.95 195.7 342.55 195.45 344.3 194.45 345.25 193.85 347.3 192.65 349.85 191.3 357.25 190.4 356.05 189.45 354.4 188.5 351.1 186.6 348.7 186.6 344.7 186.6 342.65 187.1 339.35 187.95 338.55 190.25
        M 384.5 368.65
        L 382.6 364.8 380.6 368.7
        Q 378.6 373.25 378.65 376.45 378.7 380.85 379.3 382.6 380.05 384.95 382.45 385.85 384.95 386.8 386.6 383.15 388.2 379.65 387.3 376 386.6 373.1 384.5 368.65
        M 346.1 357.05
        L 345.8 353.85 343.15 359.2
        Q 340.55 365.8 340.8 372 341.1 379 342.35 381.45 343.35 383.45 346 383.9 348.55 384.35 349.5 381.8 350.55 379.15 349.4 374.25 348.7 371.35 347.35 367.4 346.5 364.9 346.45 362.95 346.4 360.7 346.1 357.05
        M 332.25 366.8
        Q 330.85 356.6 330.75 355 330.55 351.75 330.1 347.4
        L 329.65 343.65 326.05 358.65
        Q 322.65 374.85 323.75 380.7 325.15 387.95 326.05 390.75 327.05 393.85 328.55 395.1 330.25 396.5 332 392.7 333.95 388.6 333.75 381.85 333.6 376.3 332.25 366.8
        M 340.15 288.1
        Q 338.85 292.05 338.65 293.2 338.4 294.8 339.1 295.75 339.9 296.85 341.85 296.6 343.85 296.35 343.9 294.9 343.9 292.75 344 291.4 344.2 289 345 286.7
        L 347.9 278.75
        Q 346.35 279.9 344.6 281.65 341.1 285.15 340.15 288.1
        M 318.25 300.7
        L 318.1 298.95
        Q 317.2 300.05 316.2 301.55 314.2 304.55 313.75 306.55 313.25 308.85 313.7 310.25 314.1 311.55 315.15 311.85 316.1 312.15 317.25 309.4 318.35 306.75 318.4 304.5 318.45 302.75 318.25 300.7
        M 297.6 291.65
        L 298.05 287.15
        Q 296.4 289.05 294.8 292.1 291.55 298.1 291.65 303.65 291.8 309.45 292.7 311.3 293.05 312.05 294.5 312.75 295.5 313.2 296.55 312.15 297.65 311 297.7 309.15 297.75 307.95 297.4 304.35 297.05 300.65 297.1 298.8 297.15 296.6 297.6 291.65
        M 285.15 239.2
        L 288.5 229.8
        Q 285 233.7 281.25 238.7 273.65 248.7 272.2 254.3 270.6 260.35 270.8 263.85 270.9 266.2 272.1 268.65 273.25 271.05 274.7 271.75 276.5 272.6 277.45 269.9 278.45 267.05 279.8 260.8 281.05 254.95 281.45 251.65 281.75 249.1 285.15 239.2 Z" />
                </g>

                <path id="Layer0_0_1_STROKES" stroke="#3b82f6" stroke-width="1"
                    stroke-linejoin="round" stroke-linecap="round" fill="none"
                    d="
        M 357.25 190.4
        Q 356.05 189.45 354.4 188.5 351.1 186.6 348.7 186.6 344.7 186.6 342.65 187.1 339.35 187.95 338.55 190.25 337.7 192.85 338.4 194.4 339 196 340.95 195.7 342.55 195.45 344.3 194.45 345.25 193.85 347.3 192.65 349.85 191.3 357.25 190.4 Z
        M 347.9 278.75
        Q 346.35 279.9 344.6 281.65 341.1 285.15 340.15 288.1 338.85 292.05 338.65 293.2 338.4 294.8 339.1 295.75 339.9 296.85 341.85 296.6 343.85 296.35 343.9 294.9 343.9 292.75 344 291.4 344.2 289 345 286.7
        L 347.9 278.75 Z
        M 345.8 353.85
        L 343.15 359.2
        Q 340.55 365.8 340.8 372 341.1 379 342.35 381.45 343.35 383.45 346 383.9 348.55 384.35 349.5 381.8 350.55 379.15 349.4 374.25 348.7 371.35 347.35 367.4 346.5 364.9 346.45 362.95 346.4 360.7 346.1 357.05
        L 345.8 353.85 Z
        M 329.65 343.65
        L 326.05 358.65
        Q 322.65 374.85 323.75 380.7 325.15 387.95 326.05 390.75 327.05 393.85 328.55 395.1 330.25 396.5 332 392.7 333.95 388.6 333.75 381.85 333.6 376.3 332.25 366.8 330.85 356.6 330.75 355 330.55 351.75 330.1 347.4
        L 329.65 343.65 Z
        M 382.6 364.8
        L 380.6 368.7
        Q 378.6 373.25 378.65 376.45 378.7 380.85 379.3 382.6 380.05 384.95 382.45 385.85 384.95 386.8 386.6 383.15 388.2 379.65 387.3 376 386.6 373.1 384.5 368.65
        L 382.6 364.8 Z
        M 288.5 229.8
        Q 285 233.7 281.25 238.7 273.65 248.7 272.2 254.3 270.6 260.35 270.8 263.85 270.9 266.2 272.1 268.65 273.25 271.05 274.7 271.75 276.5 272.6 277.45 269.9 278.45 267.05 279.8 260.8 281.05 254.95 281.45 251.65 281.75 249.1 285.15 239.2
        L 288.5 229.8 Z
        M 298.05 287.15
        Q 296.4 289.05 294.8 292.1 291.55 298.1 291.65 303.65 291.8 309.45 292.7 311.3 293.05 312.05 294.5 312.75 295.5 313.2 296.55 312.15 297.65 311 297.7 309.15 297.75 307.95 297.4 304.35 297.05 300.65 297.1 298.8 297.15 296.6 297.6 291.65
        L 298.05 287.15 Z
        M 318.1 298.95
        Q 317.2 300.05 316.2 301.55 314.2 304.55 313.75 306.55 313.25 308.85 313.7 310.25 314.1 311.55 315.15 311.85 316.1 312.15 317.25 309.4 318.35 306.75 318.4 304.5 318.45 302.75 318.25 300.7
        L 318.1 298.95 Z" />
            </defs>

            <g transform="matrix( 1, 0, 0, 1, 0,0) ">
                <use xlink:href="#Layer0_0_FILL" />

                <use xlink:href="#Layer0_0_1_STROKES" />
            </g>
        </svg>

    </symbol>
    <symbol id="splash-anim0008" viewBox="0 0 640 480">

        <svg xmlns="http://www.w3.org/2000/svg" version="1.1"
            xmlns:xlink="http://www.w3.org/1999/xlink" preserveAspectRatio="none" x="0px" y="0px"
            width="640px" height="480px" viewBox="0 0 640 480">
            <defs>
                <g id="Layer0_0_FILL">
                    <path fill="#3b82f6" stroke="none"
                        d="
    M 325.65 203.3
    Q 326.8 203.4 327.8 202.75 329 202.05 329.75 200.85 330.85 199.3 330 198.3 328.95 196.95 326.7 197.85 324.3 198.8 323.4 201.55 324.2 203.05 325.65 203.3
    M 384.8 411.5
    Q 386.3 411.45 386.85 410.95 387.3 410.45 387.05 409.3 386.65 407.7 386.45 407.25 385.95 406.35 384.85 406.25 383.75 406.15 383.55 406.65 383.35 407.05 382.95 408.7 383.1 410.45 383.15 410.65 383.45 411.55 384.8 411.5
    M 327.7 399.85
    L 326.95 403.5
    Q 326.3 407.5 326.95 409.35 327.75 411.65 328.1 411.95 328.45 412.3 329.9 412 331.35 411.7 331.65 410.3 331.9 408.9 331.2 405.7 330.6 403.05 329.1 401.2
    L 327.7 399.85
    M 338.05 311.25
    L 336.9 308.45 335.7 310.65
    Q 334.5 313.15 334.6 314.8 334.7 316.85 335.1 317.45 335.55 318.15 337 318.25 338.45 318.35 339.1 317.5 339.75 316.7 339.45 315.35 339.25 314.3 338.05 311.25
    M 293.15 326.1
    Q 292.55 326.75 292.1 327.5 291.8 330.1 291.75 331.1 291.7 333.7 292.45 334.8 293.4 336.15 294.7 336.6 296.1 337 297.05 335.95 298.05 334.85 297.4 330.45 296.7 326.1 295.45 325.4 294.4 324.85 293.15 326.1
    M 274.1 290.7
    L 272.9 286.5 271.8 289.6
    Q 270.7 293.3 270.6 296.15 270.45 300.1 270.7 300.95 271 302.3 272.7 302.2 274.5 302.1 275.25 300.7 276 299.35 275.65 297.1 275.35 295.3 274.1 290.7 Z" />
                </g>

                <path id="Layer0_0_1_STROKES" stroke="#3b82f6" stroke-width="1"
                    stroke-linejoin="round" stroke-linecap="round" fill="none"
                    d="
    M 323.4 201.55
    Q 324.2 203.05 325.65 203.3 326.8 203.4 327.8 202.75 329 202.05 329.75 200.85 330.85 199.3 330 198.3 328.95 196.95 326.7 197.85 324.3 198.8 323.4 201.55 Z
    M 336.9 308.45
    L 335.7 310.65
    Q 334.5 313.15 334.6 314.8 334.7 316.85 335.1 317.45 335.55 318.15 337 318.25 338.45 318.35 339.1 317.5 339.75 316.7 339.45 315.35 339.25 314.3 338.05 311.25
    L 336.9 308.45 Z
    M 272.9 286.5
    L 271.8 289.6
    Q 270.7 293.3 270.6 296.15 270.45 300.1 270.7 300.95 271 302.3 272.7 302.2 274.5 302.1 275.25 300.7 276 299.35 275.65 297.1 275.35 295.3 274.1 290.7
    L 272.9 286.5 Z
    M 292.1 327.5
    Q 291.8 330.1 291.75 331.1 291.7 333.7 292.45 334.8 293.4 336.15 294.7 336.6 296.1 337 297.05 335.95 298.05 334.85 297.4 330.45 296.7 326.1 295.45 325.4 294.4 324.85 293.15 326.1 292.55 326.75 292.1 327.5 Z
    M 382.95 408.7
    Q 383.1 410.45 383.15 410.65 383.45 411.55 384.8 411.5 386.3 411.45 386.85 410.95 387.3 410.45 387.05 409.3 386.65 407.7 386.45 407.25 385.95 406.35 384.85 406.25 383.75 406.15 383.55 406.65 383.35 407.05 382.95 408.7 Z
    M 327.7 399.85
    L 326.95 403.5
    Q 326.3 407.5 326.95 409.35 327.75 411.65 328.1 411.95 328.45 412.3 329.9 412 331.35 411.7 331.65 410.3 331.9 408.9 331.2 405.7 330.6 403.05 329.1 401.2
    L 327.7 399.85 Z" />
            </defs>

            <g transform="matrix( 1, 0, 0, 1, 0,0) ">
                <use xlink:href="#Layer0_0_FILL" />

                <use xlink:href="#Layer0_0_1_STROKES" />
            </g>
        </svg>

    </symbol>
    <symbol id="splash-anim0009" viewBox="0 0 640 480">

        <svg xmlns="http://www.w3.org/2000/svg" version="1.1"
            xmlns:xlink="http://www.w3.org/1999/xlink" preserveAspectRatio="none" x="0px" y="0px"
            width="640px" height="480px" viewBox="0 0 640 480">
            <defs>
                <g id="Layer0_0_FILL">
                    <path fill="#3b82f6" stroke="none"
                        d="
    M 316.45 219.5
    Q 316.45 219.75 316.6 219.9 316.8 220.1 317.05 220.1 317.3 220.1 317.45 219.9 317.65 219.75 317.65 219.5 317.65 219.25 317.45 219.05 317.3 218.9 317.05 218.9 316.8 218.9 316.6 219.05 316.45 219.25 316.45 219.5
    M 331.4 426.3
    Q 331.4 425.65 330.95 425.2 330.5 424.75 329.85 424.75 329.2 424.75 328.75 425.2 328.3 425.65 328.3 426.3 328.3 426.95 328.75 427.4 329.2 427.85 329.85 427.85 330.5 427.85 330.95 427.4 331.4 426.95 331.4 426.3
    M 268.6 316.5
    Q 268.6 317.55 269.35 318.3 270.1 319.05 271.15 319.05 272.2 319.05 272.95 318.3 273.7 317.55 273.7 316.5 273.7 315.45 272.95 314.7 272.2 313.95 271.15 313.95 270.1 313.95 269.35 314.7 268.6 315.45 268.6 316.5
    M 294.35 355.25
    Q 295.15 354.45 295.15 353.3 295.15 352.15 294.35 351.35 293.55 350.55 292.4 350.55 291.25 350.55 290.45 351.35 289.65 352.15 289.65 353.3 289.65 354.45 290.45 355.25 291.25 356.05 292.4 356.05 293.55 356.05 294.35 355.25
    M 340.2 336.6
    Q 340.4 335.8 340.4 334.65 340.4 333.5 340.2 332.65 340 331.85 339.7 331.85 339.4 331.85 339.2 332.65 339 333.5 339 334.65 339 335.8 339.2 336.6 339.4 337.45 339.7 337.45 340 337.45 340.2 336.6 Z" />
                </g>

                <path id="Layer0_0_1_STROKES" stroke="#3b82f6" stroke-width="1"
                    stroke-linejoin="round" stroke-linecap="round" fill="none"
                    d="
    M 340.4 334.65
    Q 340.4 335.8 340.2 336.6 340 337.45 339.7 337.45 339.4 337.45 339.2 336.6 339 335.8 339 334.65 339 333.5 339.2 332.65 339.4 331.85 339.7 331.85 340 331.85 340.2 332.65 340.4 333.5 340.4 334.65 Z
    M 317.65 219.5
    Q 317.65 219.75 317.45 219.9 317.3 220.1 317.05 220.1 316.8 220.1 316.6 219.9 316.45 219.75 316.45 219.5 316.45 219.25 316.6 219.05 316.8 218.9 317.05 218.9 317.3 218.9 317.45 219.05 317.65 219.25 317.65 219.5 Z
    M 273.7 316.5
    Q 273.7 317.55 272.95 318.3 272.2 319.05 271.15 319.05 270.1 319.05 269.35 318.3 268.6 317.55 268.6 316.5 268.6 315.45 269.35 314.7 270.1 313.95 271.15 313.95 272.2 313.95 272.95 314.7 273.7 315.45 273.7 316.5 Z
    M 295.15 353.3
    Q 295.15 354.45 294.35 355.25 293.55 356.05 292.4 356.05 291.25 356.05 290.45 355.25 289.65 354.45 289.65 353.3 289.65 352.15 290.45 351.35 291.25 350.55 292.4 350.55 293.55 350.55 294.35 351.35 295.15 352.15 295.15 353.3 Z
    M 331.4 426.3
    Q 331.4 426.95 330.95 427.4 330.5 427.85 329.85 427.85 329.2 427.85 328.75 427.4 328.3 426.95 328.3 426.3 328.3 425.65 328.75 425.2 329.2 424.75 329.85 424.75 330.5 424.75 330.95 425.2 331.4 425.65 331.4 426.3 Z" />
            </defs>

            <g transform="matrix( 1, 0, 0, 1, 0,0) ">
                <use xlink:href="#Layer0_0_FILL" />

                <use xlink:href="#Layer0_0_1_STROKES" />
            </g>
        </svg>

    </symbol>
</svg>