
<svg xmlns="http://www.w3.org/2000/svg" version="1.1" xmlns:xlink="http://www.w3.org/1999/xlink" preserveAspectRatio="none" x="0px" y="0px" width="640px" height="480px" viewBox="0 0 640 480">
<defs>
<g id="Layer0_0_FILL">
<path fill="#3b82f6" stroke="none" d="
M 345.55 218.05
Q 349.25 218.2 347.1 215.55 344.9 212.75 338.5 210.15 331.35 207.2 326.2 206.7 321.15 206.1 315.55 207.65 307.2 209.95 301.15 213.65 298.85 215.05 294.3 218.75 289.3 222.85 287.05 227.65 285.3 231.4 285.75 233.4 286.55 236.7 290.95 237.35 295.65 238.05 299.25 234.3 300.4 233.05 303.65 228.65 307.1 224.25 310.4 221.95 317.9 216.65 323.1 215.9 326.25 215.5 332.5 216.1 335.35 216.15 339.3 217 343.65 217.95 345.55 218.05
M 376.1 196.4
Q 377.15 196.05 378.5 197.65 379.3 198.6 381.45 201.65 383.8 204.75 387.9 209.95 387.1 207.75 385.8 204.8 383.15 199 380.5 195.45 377.7 191.7 375.45 190.25 374.3 189.45 372.05 189 370.05 188.5 368.3 189.3 366.25 190.25 366.8 192.5 367.4 194.95 368.35 196.65 369.25 198.2 371.3 200.7 374 203.95 380.65 209 377.8 206.05 376.4 202.3 375.2 199.25 375.1 198.15 374.95 196.75 376.1 196.4
M 374.35 278.45
Q 371.65 286.7 371 291.05 369.1 303.4 372.25 317.1 374.55 327.25 377.05 330.85 378.4 332.75 380.8 334.25 383 335.65 384.25 335.55 386.05 335.45 387.2 334 388.95 331.8 388.35 327.3 387.15 318.15 386.7 313.1 385.8 302.85 386.1 295.2 386.4 287.85 387.35 278.3
L 388.25 270.25 385.85 275.75
Q 383.15 282.25 381.85 287.5 380.8 291.75 380.45 295.75 380.25 297.65 380.1 302.9 379.95 307.6 379.65 309.9 379.15 313.2 378.15 313.3 377.1 313.4 376.5 311.15 376.05 309.4 375.65 305.45 375 299 374.8 296 374.6 292.05 374.85 287.9 375.05 284.25 376 277.3
L 376.9 271.1 374.35 278.45
M 334.2 292.7
Q 334.7 288.4 336.65 282.9
L 338.45 278.25
Q 337.3 279.25 335.55 281.25 332.1 285.2 329.4 290 326.2 295.65 324.95 299.7 323.75 303.45 322.6 311.3 321.6 318.2 324.6 323.85 327.05 328.45 330.25 329.6 332.4 330.35 334.4 329.65 335.4 329.3 335.95 328.8
L 335.8 330.45
Q 335.8 332.6 336.5 335.05 337.45 338.4 338.8 340.3 340.55 342.65 343.45 343.5 346.3 344.3 348.15 342.35 349.45 341 350.75 337.5 351.8 334.8 353.1 324.85 354.35 315.2 354.95 306.35 355.4 299.15 360.15 286.45
L 364.75 275.15
Q 362.15 278.75 359.35 283.05 353.7 291.75 352.55 295.6 351.3 299.95 349.05 303.3 346.95 306.45 346.15 305.85 345.3 305.25 345 303.25 344.6 300.95 345.05 297.4 345.45 294.25 347.05 290.65
L 348.55 287.65
Q 347.5 288.55 346.3 289.95 343.8 292.7 342.85 295.05 341.6 298.1 339.75 300 337.75 302.15 336.05 301.7 334.25 301.25 333.95 299.55 333.6 297.9 334.2 292.7
M 353.8 251.25
Q 351.35 253.2 346.55 255.35 341.7 257.4 340.5 257.9 338.9 258.6 338 257.8 337.3 257.2 337.2 255.8 337.15 254.85 339.3 253 340.4 252.1 341.5 251.4 338.15 253.05 336.25 254.2 335.05 254.9 333.8 254.95
L 332.8 254.85
Q 330.7 256.6 328.5 259.35 324 264.8 323.25 269.7 322.45 274.9 324.95 275.8 327 276.55 328.75 274.75 330.4 273.05 336.05 268 339.75 264.55 345.4 261.1
L 345.25 261.95
Q 345.1 263 345.2 263.9 345.3 264.85 346.9 265.25 348.3 265.6 349.35 265.35 350.45 265.1 352.45 263 354.9 260.45 356.1 257.35 357.25 254.45 359.45 250.3 360.55 248.2 361.4 246.7 357.7 248.15 353.8 251.25
M 332.75 226.65
Q 326.9 229.5 325.25 231 323.7 232.35 324.75 233.55 325.65 234.55 328.45 234.9 330.5 235.1 332.45 234.95 334.2 234.8 335.6 234.1 334.2 236.05 331.95 236.8 327.75 237.75 324.15 239.4 317.2 242.55 313.15 248.55 308.5 255.4 307.2 259.5 306 263.2 307.35 265.55 308.65 267.85 310.25 268 311.9 268.2 314.4 265.95 315.45 265 318.9 261.2 321.6 258.2 324.1 256.5 328.4 253.55 330.15 252.45 330 252.05 330.1 251.45 330.35 250.3 331.7 249.35 333.35 248.2 336.85 246.35 340.45 244.4 342.5 243.6 345.3 242.5 352.1 240.05 348.9 239.6 345.3 240.55 343.75 240.95 341.65 241.8 340.4 242.35 339.55 242.25 335.55 241.85 339.45 239.1 342.35 237.05 345.55 235.45 349.3 233.6 352.45 232.95 356.95 232 365.35 232.4 364.95 231.3 363.65 229.9 361.1 227.15 356.85 225.75 351.1 223.9 345.25 223.9 338.35 223.95 332.75 226.65 Z"/>
</g>

<path id="Layer0_0_1_STROKES" stroke="#3b82f6" stroke-width="1" stroke-linejoin="round" stroke-linecap="round" fill="none" d="
M 387.9 209.95
Q 387.1 207.75 385.8 204.8 383.15 199 380.5 195.45 377.7 191.7 375.45 190.25 374.3 189.45 372.05 189 370.05 188.5 368.3 189.3 366.25 190.25 366.8 192.5 367.4 194.95 368.35 196.65 369.25 198.2 371.3 200.7 374 203.95 380.65 209 377.8 206.05 376.4 202.3 375.2 199.25 375.1 198.15 374.95 196.75 376.1 196.4 377.15 196.05 378.5 197.65 379.3 198.6 381.45 201.65 383.8 204.75 387.9 209.95 Z
M 315.55 207.65
Q 321.15 206.1 326.2 206.7 331.35 207.2 338.5 210.15 344.9 212.75 347.1 215.55 349.25 218.2 345.55 218.05 343.65 217.95 339.3 217 335.35 216.15 332.5 216.1 326.25 215.5 323.1 215.9 317.9 216.65 310.4 221.95 307.1 224.25 303.65 228.65 300.4 233.05 299.25 234.3 295.65 238.05 290.95 237.35 286.55 236.7 285.75 233.4 285.3 231.4 287.05 227.65 289.3 222.85 294.3 218.75 298.85 215.05 301.15 213.65 307.2 209.95 315.55 207.65 Z
M 365.35 232.4
Q 364.95 231.3 363.65 229.9 361.1 227.15 356.85 225.75 351.1 223.9 345.25 223.9 338.35 223.95 332.75 226.65 326.9 229.5 325.25 231 323.7 232.35 324.75 233.55 325.65 234.55 328.45 234.9 330.5 235.1 332.45 234.95 334.2 234.8 335.6 234.1 334.2 236.05 331.95 236.8 327.75 237.75 324.15 239.4 317.2 242.55 313.15 248.55 308.5 255.4 307.2 259.5 306 263.2 307.35 265.55 308.65 267.85 310.25 268 311.9 268.2 314.4 265.95 315.45 265 318.9 261.2 321.6 258.2 324.1 256.5 328.4 253.55 330.15 252.45 330 252.05 330.1 251.45 330.35 250.3 331.7 249.35 333.35 248.2 336.85 246.35 340.45 244.4 342.5 243.6 345.3 242.5 352.1 240.05 348.9 239.6 345.3 240.55 343.75 240.95 341.65 241.8 340.4 242.35 339.55 242.25 335.55 241.85 339.45 239.1 342.35 237.05 345.55 235.45 349.3 233.6 352.45 232.95 356.95 232 365.35 232.4 Z
M 361.4 246.7
Q 360.55 248.2 359.45 250.3 357.25 254.45 356.1 257.35 354.9 260.45 352.45 263 350.45 265.1 349.35 265.35 348.3 265.6 346.9 265.25 345.3 264.85 345.2 263.9 345.1 263 345.25 261.95
L 345.4 261.1
Q 339.75 264.55 336.05 268 330.4 273.05 328.75 274.75 327 276.55 324.95 275.8 322.45 274.9 323.25 269.7 324 264.8 328.5 259.35 330.7 256.6 332.8 254.85
L 333.8 254.95
Q 335.05 254.9 336.25 254.2 338.15 253.05 341.5 251.4 340.4 252.1 339.3 253 337.15 254.85 337.2 255.8 337.3 257.2 338 257.8 338.9 258.6 340.5 257.9 341.7 257.4 346.55 255.35 351.35 253.2 353.8 251.25 357.7 248.15 361.4 246.7 Z
M 364.75 275.15
L 360.15 286.45
Q 355.4 299.15 354.95 306.35 354.35 315.2 353.1 324.85 351.8 334.8 350.75 337.5 349.45 341 348.15 342.35 346.3 344.3 343.45 343.5 340.55 342.65 338.8 340.3 337.45 338.4 336.5 335.05 335.8 332.6 335.8 330.45
L 335.95 328.8
Q 335.4 329.3 334.4 329.65 332.4 330.35 330.25 329.6 327.05 328.45 324.6 323.85 321.6 318.2 322.6 311.3 323.75 303.45 324.95 299.7 326.2 295.65 329.4 290 332.1 285.2 335.55 281.25 337.3 279.25 338.45 278.25
L 336.65 282.9
Q 334.7 288.4 334.2 292.7 333.6 297.9 333.95 299.55 334.25 301.25 336.05 301.7 337.75 302.15 339.75 300 341.6 298.1 342.85 295.05 343.8 292.7 346.3 289.95 347.5 288.55 348.55 287.65
L 347.05 290.65
Q 345.45 294.25 345.05 297.4 344.6 300.95 345 303.25 345.3 305.25 346.15 305.85 346.95 306.45 349.05 303.3 351.3 299.95 352.55 295.6 353.7 291.75 359.35 283.05 362.15 278.75 364.75 275.15 Z
M 388.25 270.25
L 387.35 278.3
Q 386.4 287.85 386.1 295.2 385.8 302.85 386.7 313.1 387.15 318.15 388.35 327.3 388.95 331.8 387.2 334 386.05 335.45 384.25 335.55 383 335.65 380.8 334.25 378.4 332.75 377.05 330.85 374.55 327.25 372.25 317.1 369.1 303.4 371 291.05 371.65 286.7 374.35 278.45
L 376.9 271.1 376 277.3
Q 375.05 284.25 374.85 287.9 374.6 292.05 374.8 296 375 299 375.65 305.45 376.05 309.4 376.5 311.15 377.1 313.4 378.15 313.3 379.15 313.2 379.65 309.9 379.95 307.6 380.1 302.9 380.25 297.65 380.45 295.75 380.8 291.75 381.85 287.5 383.15 282.25 385.85 275.75
L 388.25 270.25 Z"/>
</defs>

<g transform="matrix( 1, 0, 0, 1, 0,0) ">
<use xlink:href="#Layer0_0_FILL"/>

<use xlink:href="#Layer0_0_1_STROKES"/>
</g>
</svg>
