
<svg xmlns="http://www.w3.org/2000/svg" version="1.1" xmlns:xlink="http://www.w3.org/1999/xlink" preserveAspectRatio="none" x="0px" y="0px" width="640px" height="480px" viewBox="0 0 640 480">
<defs>
<g id="Layer0_0_FILL">
<path fill="#3b82f6" stroke="none" d="
M 325.65 203.3
Q 326.8 203.4 327.8 202.75 329 202.05 329.75 200.85 330.85 199.3 330 198.3 328.95 196.95 326.7 197.85 324.3 198.8 323.4 201.55 324.2 203.05 325.65 203.3
M 384.8 411.5
Q 386.3 411.45 386.85 410.95 387.3 410.45 387.05 409.3 386.65 407.7 386.45 407.25 385.95 406.35 384.85 406.25 383.75 406.15 383.55 406.65 383.35 407.05 382.95 408.7 383.1 410.45 383.15 410.65 383.45 411.55 384.8 411.5
M 327.7 399.85
L 326.95 403.5
Q 326.3 407.5 326.95 409.35 327.75 411.65 328.1 411.95 328.45 412.3 329.9 412 331.35 411.7 331.65 410.3 331.9 408.9 331.2 405.7 330.6 403.05 329.1 401.2
L 327.7 399.85
M 338.05 311.25
L 336.9 308.45 335.7 310.65
Q 334.5 313.15 334.6 314.8 334.7 316.85 335.1 317.45 335.55 318.15 337 318.25 338.45 318.35 339.1 317.5 339.75 316.7 339.45 315.35 339.25 314.3 338.05 311.25
M 293.15 326.1
Q 292.55 326.75 292.1 327.5 291.8 330.1 291.75 331.1 291.7 333.7 292.45 334.8 293.4 336.15 294.7 336.6 296.1 337 297.05 335.95 298.05 334.85 297.4 330.45 296.7 326.1 295.45 325.4 294.4 324.85 293.15 326.1
M 274.1 290.7
L 272.9 286.5 271.8 289.6
Q 270.7 293.3 270.6 296.15 270.45 300.1 270.7 300.95 271 302.3 272.7 302.2 274.5 302.1 275.25 300.7 276 299.35 275.65 297.1 275.35 295.3 274.1 290.7 Z"/>
</g>

<path id="Layer0_0_1_STROKES" stroke="#3b82f6" stroke-width="1" stroke-linejoin="round" stroke-linecap="round" fill="none" d="
M 323.4 201.55
Q 324.2 203.05 325.65 203.3 326.8 203.4 327.8 202.75 329 202.05 329.75 200.85 330.85 199.3 330 198.3 328.95 196.95 326.7 197.85 324.3 198.8 323.4 201.55 Z
M 336.9 308.45
L 335.7 310.65
Q 334.5 313.15 334.6 314.8 334.7 316.85 335.1 317.45 335.55 318.15 337 318.25 338.45 318.35 339.1 317.5 339.75 316.7 339.45 315.35 339.25 314.3 338.05 311.25
L 336.9 308.45 Z
M 272.9 286.5
L 271.8 289.6
Q 270.7 293.3 270.6 296.15 270.45 300.1 270.7 300.95 271 302.3 272.7 302.2 274.5 302.1 275.25 300.7 276 299.35 275.65 297.1 275.35 295.3 274.1 290.7
L 272.9 286.5 Z
M 292.1 327.5
Q 291.8 330.1 291.75 331.1 291.7 333.7 292.45 334.8 293.4 336.15 294.7 336.6 296.1 337 297.05 335.95 298.05 334.85 297.4 330.45 296.7 326.1 295.45 325.4 294.4 324.85 293.15 326.1 292.55 326.75 292.1 327.5 Z
M 382.95 408.7
Q 383.1 410.45 383.15 410.65 383.45 411.55 384.8 411.5 386.3 411.45 386.85 410.95 387.3 410.45 387.05 409.3 386.65 407.7 386.45 407.25 385.95 406.35 384.85 406.25 383.75 406.15 383.55 406.65 383.35 407.05 382.95 408.7 Z
M 327.7 399.85
L 326.95 403.5
Q 326.3 407.5 326.95 409.35 327.75 411.65 328.1 411.95 328.45 412.3 329.9 412 331.35 411.7 331.65 410.3 331.9 408.9 331.2 405.7 330.6 403.05 329.1 401.2
L 327.7 399.85 Z"/>
</defs>

<g transform="matrix( 1, 0, 0, 1, 0,0) ">
<use xlink:href="#Layer0_0_FILL"/>

<use xlink:href="#Layer0_0_1_STROKES"/>
</g>
</svg>
