
<svg xmlns="http://www.w3.org/2000/svg" version="1.1" xmlns:xlink="http://www.w3.org/1999/xlink" preserveAspectRatio="none" x="0px" y="0px" width="640px" height="480px" viewBox="0 0 640 480">
<defs>
<g id="Layer0_0_FILL">
<path fill="#3b82f6" stroke="none" d="
M 389.7 222.1
Q 388.55 217.9 387.5 215.5 385.5 210.95 382.4 211.55 379.6 212.15 378.75 214.7 378.4 215.75 378.15 215.95 377.7 216.35 376.55 215.8 358.7 207.15 330.45 207.1 322.15 207.1 316 211.55 311 215.2 309.7 219.65 308.75 223 310 225.9 311.25 228.7 313.95 229.4 318.1 230.45 320.95 230 324.35 229.4 328.65 226.35 332.9 223.35 336.5 223.2 339.75 223 339.8 224.85 339.85 226.05 337.55 226.35 334.5 226.8 333.65 227.4 331.95 228.6 332.6 230.5 333.25 232.4 335.7 232.05 339.1 231.55 342.2 231.8 340.25 232.45 337.75 233.55 332.7 235.8 329.8 238.35 325.15 242.4 322.45 245.4 318.4 249.9 317.1 253.65 315.7 257.65 318 258.4 320.2 259.15 323 256.55 325.05 254.65 329.3 251.7 335.35 247.45 336.6 246.5 339.65 244.2 345.3 243.2 348.1 242.7 350.3 242.65 342.45 246.5 339 249.05 336.5 250.9 334.5 254.25 332.6 257.4 331.55 261.15 330.65 264.4 333.2 264.95 335.4 265.4 337.25 264.05 338.2 263.35 341 261.1 344 258.7 346.95 256.75 350 254.75 353.1 254.7 354.65 254.65 355.6 255
L 346.6 261.7
Q 339.7 266.8 334.9 280.4 334.2 282.45 329.9 288.1 326.3 292.85 326.05 296.75 325.7 302.3 327.3 305.85 329.05 309.8 332.7 310 335.9 310.2 338.45 309.3 339.7 308.85 340.3 308.35
L 339.2 312.6
Q 338.4 317.95 340.15 323.5 342.05 329.5 346.7 327.5 350.75 325.75 352.9 321.1 354.15 318.45 355.85 310.8 358.3 299.95 360.1 293.7 363 283.55 364.9 281.85 366.5 280.45 370.65 283.05 373.2 284.65 374 288.2 374.3 289.5 374.4 292.75 374.55 297.1 375.55 301.55 376.8 307.35 378.75 308.8 382.65 311.65 386.25 303.1 387.4 300.35 387.55 296.05 387.75 288.45 388.35 283.2 389.3 275.25 390.55 267.6
L 391.6 261.5
Q 391.15 261.6 389.85 262.85 386.9 265.65 384 264.5 382.75 264 383.3 262.75 383.6 262 385.1 260.25 386.05 259.15 385.7 258.45
L 385.1 257.95
Q 376.7 258.8 373.5 259.8 370.2 260.85 362.8 266 355.8 271.15 355.15 271.55 354 272.3 353.05 271.75 351.9 271.15 352.45 269.1 352.95 267.3 356.3 264.25 363.5 257.75 363.75 257.5 367.25 254.05 372.55 250.95 375.2 249.45 377.15 248.6 376.25 248.15 374.55 247.8 371.2 247.15 367.4 247.7 363.75 248.25 363.9 245.35 364.1 243.6 364.2 242.7 364.35 241.05 363.95 240.2 363.6 239.45 361.65 239.3 358.8 239.1 357.6 238.7 355.25 237.95 356 236.4 356.75 234.8 359.95 234.9 368.85 235.2 369.25 232.3 369.7 229.25 366.65 226.15 363.55 223 358.45 221.45 353.65 220.55 352 220.2 349.3 219.55 350.8 217.85 351.8 216.7 355.9 216.95 359.5 217.2 363.3 218.25 367.6 219.45 383.8 227.55 398.35 234.85 398.35 234.4 397.05 233.15 395.3 231 391.8 226.65 389.7 222.1 Z"/>
</g>

<path id="Layer0_0_1_STROKES" stroke="#3b82f6" stroke-width="1" stroke-linejoin="round" stroke-linecap="round" fill="none" d="
M 395.3 231
Q 397.05 233.15 398.35 234.4 398.35 234.85 383.8 227.55 367.6 219.45 363.3 218.25 359.5 217.2 355.9 216.95 351.8 216.7 350.8 217.85 349.3 219.55 352 220.2 353.65 220.55 358.45 221.45 363.55 223 366.65 226.15 369.7 229.25 369.25 232.3 368.85 235.2 359.95 234.9 356.75 234.8 356 236.4 355.25 237.95 357.6 238.7 358.8 239.1 361.65 239.3 363.6 239.45 363.95 240.2 364.35 241.05 364.2 242.7 364.1 243.6 363.9 245.35 363.75 248.25 367.4 247.7 371.2 247.15 374.55 247.8 376.25 248.15 377.15 248.6 375.2 249.45 372.55 250.95 367.25 254.05 363.75 257.5 363.5 257.75 356.3 264.25 352.95 267.3 352.45 269.1 351.9 271.15 353.05 271.75 354 272.3 355.15 271.55 355.8 271.15 362.8 266 370.2 260.85 373.5 259.8 376.7 258.8 385.1 257.95
L 385.7 258.45
Q 386.05 259.15 385.1 260.25 383.6 262 383.3 262.75 382.75 264 384 264.5 386.9 265.65 389.85 262.85 391.15 261.6 391.6 261.5
L 390.55 267.6
Q 389.3 275.25 388.35 283.2 387.75 288.45 387.55 296.05 387.4 300.35 386.25 303.1 382.65 311.65 378.75 308.8 376.8 307.35 375.55 301.55 374.55 297.1 374.4 292.75 374.3 289.5 374 288.2 373.2 284.65 370.65 283.05 366.5 280.45 364.9 281.85 363 283.55 360.1 293.7 358.3 299.95 355.85 310.8 354.15 318.45 352.9 321.1 350.75 325.75 346.7 327.5 342.05 329.5 340.15 323.5 338.4 317.95 339.2 312.6
L 340.3 308.35
Q 339.7 308.85 338.45 309.3 335.9 310.2 332.7 310 329.05 309.8 327.3 305.85 325.7 302.3 326.05 296.75 326.3 292.85 329.9 288.1 334.2 282.45 334.9 280.4 339.7 266.8 346.6 261.7
L 355.6 255
Q 354.65 254.65 353.1 254.7 350 254.75 346.95 256.75 344 258.7 341 261.1 338.2 263.35 337.25 264.05 335.4 265.4 333.2 264.95 330.65 264.4 331.55 261.15 332.6 257.4 334.5 254.25 336.5 250.9 339 249.05 342.45 246.5 350.3 242.65 348.1 242.7 345.3 243.2 339.65 244.2 336.6 246.5 335.35 247.45 329.3 251.7 325.05 254.65 323 256.55 320.2 259.15 318 258.4 315.7 257.65 317.1 253.65 318.4 249.9 322.45 245.4 325.15 242.4 329.8 238.35 332.7 235.8 337.75 233.55 340.25 232.45 342.2 231.8 339.1 231.55 335.7 232.05 333.25 232.4 332.6 230.5 331.95 228.6 333.65 227.4 334.5 226.8 337.55 226.35 339.85 226.05 339.8 224.85 339.75 223 336.5 223.2 332.9 223.35 328.65 226.35 324.35 229.4 320.95 230 318.1 230.45 313.95 229.4 311.25 228.7 310 225.9 308.75 223 309.7 219.65 311 215.2 316 211.55 322.15 207.1 330.45 207.1 358.7 207.15 376.55 215.8 377.7 216.35 378.15 215.95 378.4 215.75 378.75 214.7 379.6 212.15 382.4 211.55 385.5 210.95 387.5 215.5 388.55 217.9 389.7 222.1 391.8 226.65 395.3 231 Z"/>
</defs>

<g transform="matrix( 1, 0, 0, 1, 0,0) ">
<use xlink:href="#Layer0_0_FILL"/>

<use xlink:href="#Layer0_0_1_STROKES"/>
</g>
</svg>
