
<svg xmlns="http://www.w3.org/2000/svg" version="1.1" xmlns:xlink="http://www.w3.org/1999/xlink" preserveAspectRatio="none" x="0px" y="0px" width="640px" height="480px" viewBox="0 0 640 480">
<defs>
<g id="Layer0_0_FILL">
<path fill="#3b82f6" stroke="none" d="
M 338.55 190.25
Q 337.7 192.85 338.4 194.4 339 196 340.95 195.7 342.55 195.45 344.3 194.45 345.25 193.85 347.3 192.65 349.85 191.3 357.25 190.4 356.05 189.45 354.4 188.5 351.1 186.6 348.7 186.6 344.7 186.6 342.65 187.1 339.35 187.95 338.55 190.25
M 384.5 368.65
L 382.6 364.8 380.6 368.7
Q 378.6 373.25 378.65 376.45 378.7 380.85 379.3 382.6 380.05 384.95 382.45 385.85 384.95 386.8 386.6 383.15 388.2 379.65 387.3 376 386.6 373.1 384.5 368.65
M 346.1 357.05
L 345.8 353.85 343.15 359.2
Q 340.55 365.8 340.8 372 341.1 379 342.35 381.45 343.35 383.45 346 383.9 348.55 384.35 349.5 381.8 350.55 379.15 349.4 374.25 348.7 371.35 347.35 367.4 346.5 364.9 346.45 362.95 346.4 360.7 346.1 357.05
M 332.25 366.8
Q 330.85 356.6 330.75 355 330.55 351.75 330.1 347.4
L 329.65 343.65 326.05 358.65
Q 322.65 374.85 323.75 380.7 325.15 387.95 326.05 390.75 327.05 393.85 328.55 395.1 330.25 396.5 332 392.7 333.95 388.6 333.75 381.85 333.6 376.3 332.25 366.8
M 340.15 288.1
Q 338.85 292.05 338.65 293.2 338.4 294.8 339.1 295.75 339.9 296.85 341.85 296.6 343.85 296.35 343.9 294.9 343.9 292.75 344 291.4 344.2 289 345 286.7
L 347.9 278.75
Q 346.35 279.9 344.6 281.65 341.1 285.15 340.15 288.1
M 318.25 300.7
L 318.1 298.95
Q 317.2 300.05 316.2 301.55 314.2 304.55 313.75 306.55 313.25 308.85 313.7 310.25 314.1 311.55 315.15 311.85 316.1 312.15 317.25 309.4 318.35 306.75 318.4 304.5 318.45 302.75 318.25 300.7
M 297.6 291.65
L 298.05 287.15
Q 296.4 289.05 294.8 292.1 291.55 298.1 291.65 303.65 291.8 309.45 292.7 311.3 293.05 312.05 294.5 312.75 295.5 313.2 296.55 312.15 297.65 311 297.7 309.15 297.75 307.95 297.4 304.35 297.05 300.65 297.1 298.8 297.15 296.6 297.6 291.65
M 285.15 239.2
L 288.5 229.8
Q 285 233.7 281.25 238.7 273.65 248.7 272.2 254.3 270.6 260.35 270.8 263.85 270.9 266.2 272.1 268.65 273.25 271.05 274.7 271.75 276.5 272.6 277.45 269.9 278.45 267.05 279.8 260.8 281.05 254.95 281.45 251.65 281.75 249.1 285.15 239.2 Z"/>
</g>

<path id="Layer0_0_1_STROKES" stroke="#3b82f6" stroke-width="1" stroke-linejoin="round" stroke-linecap="round" fill="none" d="
M 357.25 190.4
Q 356.05 189.45 354.4 188.5 351.1 186.6 348.7 186.6 344.7 186.6 342.65 187.1 339.35 187.95 338.55 190.25 337.7 192.85 338.4 194.4 339 196 340.95 195.7 342.55 195.45 344.3 194.45 345.25 193.85 347.3 192.65 349.85 191.3 357.25 190.4 Z
M 347.9 278.75
Q 346.35 279.9 344.6 281.65 341.1 285.15 340.15 288.1 338.85 292.05 338.65 293.2 338.4 294.8 339.1 295.75 339.9 296.85 341.85 296.6 343.85 296.35 343.9 294.9 343.9 292.75 344 291.4 344.2 289 345 286.7
L 347.9 278.75 Z
M 345.8 353.85
L 343.15 359.2
Q 340.55 365.8 340.8 372 341.1 379 342.35 381.45 343.35 383.45 346 383.9 348.55 384.35 349.5 381.8 350.55 379.15 349.4 374.25 348.7 371.35 347.35 367.4 346.5 364.9 346.45 362.95 346.4 360.7 346.1 357.05
L 345.8 353.85 Z
M 329.65 343.65
L 326.05 358.65
Q 322.65 374.85 323.75 380.7 325.15 387.95 326.05 390.75 327.05 393.85 328.55 395.1 330.25 396.5 332 392.7 333.95 388.6 333.75 381.85 333.6 376.3 332.25 366.8 330.85 356.6 330.75 355 330.55 351.75 330.1 347.4
L 329.65 343.65 Z
M 382.6 364.8
L 380.6 368.7
Q 378.6 373.25 378.65 376.45 378.7 380.85 379.3 382.6 380.05 384.95 382.45 385.85 384.95 386.8 386.6 383.15 388.2 379.65 387.3 376 386.6 373.1 384.5 368.65
L 382.6 364.8 Z
M 288.5 229.8
Q 285 233.7 281.25 238.7 273.65 248.7 272.2 254.3 270.6 260.35 270.8 263.85 270.9 266.2 272.1 268.65 273.25 271.05 274.7 271.75 276.5 272.6 277.45 269.9 278.45 267.05 279.8 260.8 281.05 254.95 281.45 251.65 281.75 249.1 285.15 239.2
L 288.5 229.8 Z
M 298.05 287.15
Q 296.4 289.05 294.8 292.1 291.55 298.1 291.65 303.65 291.8 309.45 292.7 311.3 293.05 312.05 294.5 312.75 295.5 313.2 296.55 312.15 297.65 311 297.7 309.15 297.75 307.95 297.4 304.35 297.05 300.65 297.1 298.8 297.15 296.6 297.6 291.65
L 298.05 287.15 Z
M 318.1 298.95
Q 317.2 300.05 316.2 301.55 314.2 304.55 313.75 306.55 313.25 308.85 313.7 310.25 314.1 311.55 315.15 311.85 316.1 312.15 317.25 309.4 318.35 306.75 318.4 304.5 318.45 302.75 318.25 300.7
L 318.1 298.95 Z"/>
</defs>

<g transform="matrix( 1, 0, 0, 1, 0,0) ">
<use xlink:href="#Layer0_0_FILL"/>

<use xlink:href="#Layer0_0_1_STROKES"/>
</g>
</svg>
