
<svg xmlns="http://www.w3.org/2000/svg" version="1.1" xmlns:xlink="http://www.w3.org/1999/xlink" preserveAspectRatio="none" x="0px" y="0px" width="640px" height="480px" viewBox="0 0 640 480">
<defs>
<g id="Layer0_0_FILL">
<path fill="#3b82f6" stroke="none" d="
M 375.6 215.05
Q 369.4978515625 213.7841796875 366.85 214 364.44375 214.2078125 362.8 215.05 361.2197265625 215.8537109375 360.75 217.05 360.1525390625 218.756640625 360.85 220.55
L 360.85 220.5
Q 361.444140625 221.920703125 362.55 222.7
L 362.55 222.7
Q 363.6134765625 223.4978515625 365.45 224
L 365.45 224
Q 367.2162109375 224.553515625 368.1 225.1 368.8396484375 225.59765625 369.25 226.45 368.4673828125 226.9634765625 367.65 227.65
L 367.65 227.65
Q 365.611328125 229.5564453125 365.75 231.7 365.8583984375 234.341015625 366.5 235.75 367.241796875 237.530078125 369.2 238.85 371.066796875 240.1171875 372.75 240.1 373.428515625 240.106640625 374.4 239.8 374.247265625 240.6826171875 374.5 241
L 374.55 241
Q 374.792578125 241.42421875 375.15 241.55 374.443359375 242.40234375 373.75 243.4 371.5765625 246.8576171875 372.5 249.6
L 372.5 249.6
Q 373.63671875 252.766796875 377.1 254.25 380.3521484375 255.6552734375 385.1 255.3 388.14296875 255.0669921875 391.9 251.25 394.819140625 248.28515625 396.15 245.6 397.4328125 243.0193359375 398.05 239.8 398.96484375 235.2271484375 397.95 231.4 396.911328125 227.1068359375 393.2 223.1 389.519921875 219.1005859375 385.4 217.7 380.977734375 216.211328125 375.6 215.05 Z"/>
</g>
</defs>

<g transform="matrix( 1, 0, 0, 1, 0,0) ">
<use xlink:href="#Layer0_0_FILL"/>
</g>
</svg>
